<svg width="40" height="40" viewBox="0 0 40 40" fill="none" xmlns="http://www.w3.org/2000/svg">
    <rect x="1" y="1" width="38" height="38" rx="19" fill="#161719" style="fill:#161719;fill:color(display-p3 0.0879 0.0920 0.0969);fill-opacity:1;"/>
    <rect x="1" y="1" width="38" height="38" rx="19" stroke="white" style="stroke:white;stroke-opacity:1;" stroke-width="2"/>
    <path d="M20.0076 27.1627C20.2205 27.1627 20.4323 27.153 20.6427 27.134C21.1215 27.0907 21.5951 27.3332 21.779 27.7773L22.3171 29.0762C22.5284 29.5864 23.1134 29.8287 23.6236 29.6174L24.2382 29.3628C24.7485 29.1515 24.9908 28.5665 24.7794 28.0562L24.2419 26.7587C24.0578 26.3142 24.2217 25.8073 24.5912 25.4991C24.9202 25.2247 25.2233 24.9212 25.4975 24.5916C25.8055 24.2215 26.3127 24.0572 26.7576 24.2415L28.0562 24.7794C28.5665 24.9908 29.1515 24.7484 29.3628 24.2382L29.6174 23.6236C29.8287 23.1134 29.5864 22.5284 29.0762 22.3171L27.7775 21.7791C27.3326 21.5948 27.0901 21.12 27.1341 20.6405C27.1733 20.2136 27.1735 19.7847 27.1349 19.358C27.0916 18.8788 27.3341 18.4044 27.7786 18.2203L29.0762 17.6828C29.5864 17.4715 29.8287 16.8865 29.6173 16.3763L29.3628 15.7617C29.1515 15.2515 28.5665 15.0091 28.0562 15.2205L26.7596 15.7576C26.3151 15.9417 25.8082 15.7778 25.5002 15.4083C25.2239 15.0768 24.9194 14.7727 24.5909 14.4987C24.2218 14.1908 24.0584 13.6842 24.2424 13.2401L24.7794 11.9437C24.9908 11.4335 24.7484 10.8485 24.2381 10.6371L23.6236 10.3826C23.1134 10.1713 22.5284 10.4136 22.3171 10.9238L21.7784 12.2243C21.5947 12.6678 21.122 12.9105 20.6439 12.867C20.4288 12.8474 20.2115 12.8373 19.9924 12.8373C19.7795 12.8373 19.5677 12.847 19.3573 12.866C18.8785 12.9093 18.4049 12.6668 18.221 12.2227L17.6829 10.9238C17.4716 10.4136 16.8866 10.1713 16.3764 10.3826L15.7618 10.6372C15.2515 10.8485 15.0092 11.4335 15.2206 11.9438L15.759 13.2436C15.9429 13.6877 15.7796 14.1941 15.4106 14.5022C15.0791 14.779 14.7761 15.0833 14.5038 15.4101C14.1959 15.7798 13.689 15.9435 13.2445 15.7595L11.9438 15.2207C11.4335 15.0093 10.8485 15.2516 10.6372 15.7619L10.3827 16.3764C10.1713 16.8866 10.4136 17.4716 10.9239 17.6829L12.2245 18.2217C12.669 18.4058 12.9116 18.8801 12.868 19.3592C12.8294 19.7828 12.8285 20.2122 12.8672 20.6423C12.9103 21.1211 12.6677 21.5947 12.2236 21.7787L10.9238 22.3171C10.4136 22.5284 10.1713 23.1134 10.3826 23.6236L10.6372 24.2382C10.8485 24.7485 11.4335 24.9908 11.9438 24.7794L13.2404 24.2423C13.6849 24.0582 14.1918 24.2221 14.4998 24.5916C14.7761 24.9231 15.0806 25.2272 15.4091 25.5012C15.7782 25.8091 15.9416 26.3157 15.7576 26.7598L15.2206 28.0562C15.0092 28.5665 15.2515 29.1515 15.7618 29.3628L16.3764 29.6173C16.8866 29.8287 17.4716 29.5864 17.6829 29.0761L18.2215 27.7758C18.4053 27.3322 18.8781 27.0896 19.3563 27.1331C19.5713 27.1526 19.7885 27.1627 20.0076 27.1627ZM15.8475 18.2799C16.3079 17.1685 17.1713 16.3036 18.279 15.8449C18.8275 15.6176 19.404 15.5025 19.9925 15.5025C21.8227 15.5025 23.4566 16.5924 24.1552 18.2789C24.614 19.3864 24.6131 20.6086 24.1527 21.7201C23.6924 22.8315 22.8288 23.6964 21.7212 24.1551C21.1727 24.3824 20.5962 24.4975 20.0077 24.4975C18.1775 24.4975 16.5436 23.4076 15.845 21.7211C15.3861 20.6136 15.387 19.3914 15.8475 18.2799Z" fill="white" style="fill:white;fill-opacity:1;"/>
</svg>
