<svg width="40" height="40" viewBox="0 0 40 40" fill="none" xmlns="http://www.w3.org/2000/svg">
    <rect x="1" y="1" width="38" height="38" rx="19" fill="white" style="fill:white;fill-opacity:1;"/>
    <rect x="1" y="1" width="38" height="38" rx="19" stroke="black" style="stroke:black;stroke-opacity:1;" stroke-width="2"/>
    <path fill-rule="evenodd" clip-rule="evenodd" d="M20.9856 7.85715C20.9856 7.30486 20.5379 6.85715 19.9856 6.85715C19.4334 6.85715 18.9856 7.30486 18.9856 7.85715V11.2857C18.9856 11.838 19.4334 12.2857 19.9856 12.2857C20.5379 12.2857 20.9856 11.838 20.9856 11.2857V7.85715ZM12.5738 9.59653C13.0333 9.29017 13.6542 9.41435 13.9606 9.87388L15.6748 12.4453C15.9812 12.9048 15.857 13.5257 15.3975 13.8321C14.938 14.1384 14.3171 14.0142 14.0107 13.5547L12.2965 10.9833C11.9901 10.5237 12.1143 9.90288 12.5738 9.59653ZM13.9856 21C13.9856 17.6865 16.6721 15 19.9856 15C23.2991 15 25.9856 17.6865 25.9856 21C25.9856 23.3613 24.6175 25.3985 22.6341 26.3769L22 27.5H18L17.3372 26.3769C15.3528 25.3985 13.9856 23.3613 13.9856 21ZM21.9856 30.5C21.9856 31.6045 21.0901 32.5 19.9856 32.5C18.8811 32.5 17.9856 31.6045 17.9856 30.5H21.9856ZM18 28.5H22V29.5H18V28.5ZM9.11751 15.4671C8.58647 15.3153 8.03299 15.6228 7.88126 16.1539C7.72954 16.6849 8.03703 17.2384 8.56807 17.3901L11.5681 18.2472C12.0991 18.399 12.6526 18.0915 12.8043 17.5604C12.956 17.0294 12.6485 16.4759 12.1175 16.3242L9.11751 15.4671ZM30.6815 15.4671C31.2126 15.3153 31.766 15.6228 31.9178 16.1539C32.0695 16.6849 31.762 17.2384 31.231 17.3901L28.231 18.2472C27.6999 18.399 27.1464 18.0915 26.9947 17.5604C26.843 17.0294 27.1505 16.4759 27.6815 16.3242L30.6815 15.4671ZM27.2252 9.59653C26.7657 9.29017 26.1448 9.41435 25.8385 9.87388L24.1242 12.4453C23.8178 12.9048 23.942 13.5257 24.4015 13.8321C24.8611 14.1384 25.4819 14.0142 25.7883 13.5547L27.5026 10.9833C27.8089 10.5237 27.6848 9.90288 27.2252 9.59653Z" fill="black" style="fill:black;fill-opacity:1;"/>
</svg>
