<svg width="16" height="16" viewBox="0 0 16 16" fill="none" xmlns="http://www.w3.org/2000/svg">
    <path fill-rule="evenodd" clip-rule="evenodd" d="M1.85417 1.89851C-0.618031 4.42985 -0.61808 8.54868 1.85417 11.08C3.95159 13.2275 7.07098 13.5527 9.50683 12.0566C9.50683 12.0566 9.68288 11.9491 9.83143 12.1013L13.0597 15.4066C13.7036 16.0659 14.604 16.2228 15.175 15.6381L15.2733 15.5375C15.8443 14.9527 15.691 14.0309 15.0471 13.3716L11.8121 10.0593C11.6703 9.91427 11.7753 9.73397 11.7753 9.73397C13.2365 7.23989 12.9189 4.04601 10.8214 1.89851C8.34919 -0.632836 4.32648 -0.632836 1.85417 1.89851ZM9.65076 3.09725C11.4775 4.96766 11.4776 8.01098 9.65081 9.88138C7.82398 11.7517 4.85169 11.7517 3.02491 9.88138C1.19813 8.01098 1.19813 4.9676 3.02491 3.09725C4.85164 1.22685 7.82398 1.2269 9.65076 3.09725ZM9.50089 6.05108C9.41758 6.08711 9.33114 6.10423 9.24611 6.10423C8.99114 6.10423 8.74879 5.95068 8.64313 5.69507C8.03919 4.23361 6.38638 3.54773 4.95901 4.16614C4.62605 4.31031 4.24215 4.15099 4.10125 3.81019C3.96039 3.46938 4.1161 3.07621 4.4489 2.93199C6.54098 2.02555 8.96325 3.0308 9.84855 5.17289C9.9894 5.51369 9.8337 5.90687 9.50089 6.05108Z" fill="#ABB1BB" style="fill:#ABB1BB;fill:color(display-p3 0.6722 0.6930 0.7333);fill-opacity:1;"/>
</svg>
