<svg width="40" height="40" viewBox="0 0 40 40" fill="none" xmlns="http://www.w3.org/2000/svg">
    <rect x="1" y="1" width="38" height="38" rx="19" fill="white" style="fill:white;fill-opacity:1;"/>
    <rect x="1" y="1" width="38" height="38" rx="19" stroke="black" style="stroke:black;stroke-opacity:1;" stroke-width="2"/>
    <path fill-rule="evenodd" clip-rule="evenodd" d="M13 29.5C13 29.7761 12.7761 30 12.5 30H11.5C11.2239 30 11 29.7761 11 29.5L11 16.5C11 16.2239 10.7761 16 10.5 16L8.64732 16C8.23951 16 8.00322 15.5381 8.24187 15.2074L11.5945 10.5618C11.7941 10.2853 12.2059 10.2853 12.4054 10.5618L15.7581 15.2074C15.9968 15.5381 15.7605 16 15.3527 16L13.5 16C13.2239 16 13 16.2239 13 16.5L13 29.5ZM24 25C27.866 25 31 21.866 31 18C31 14.134 27.866 11 24 11C20.134 11 17 14.134 17 18C17 21.866 20.134 25 24 25ZM24 13.1538C23.7238 13.1538 23.5 13.3777 23.5 13.6538V16.7438C23.5 16.9296 23.3897 17.0934 23.2555 17.2219C23.0506 17.4179 22.9231 17.6941 22.9231 18C22.9231 18.5948 23.4052 19.0769 24 19.0769C24.3059 19.0769 24.5821 18.9493 24.7781 18.7445C24.9066 18.6103 25.0704 18.5 25.2562 18.5H27.8077C28.0838 18.5 28.3077 18.2761 28.3077 18C28.3077 17.7239 28.0838 17.5 27.8077 17.5H25.2562C25.0704 17.5 24.9066 17.3898 24.7781 17.2555C24.7671 17.2441 24.7559 17.2328 24.7445 17.2219C24.6102 17.0934 24.5 16.9296 24.5 16.7438V13.6538C24.5 13.3777 24.2761 13.1538 24 13.1538Z" fill="black" style="fill:black;fill-opacity:1;"/>
</svg>
