<svg width="40" height="40" viewBox="0 0 40 40" fill="none" xmlns="http://www.w3.org/2000/svg">
    <rect x="1" y="1" width="38" height="38" rx="19" fill="#161719" style="fill:#161719;fill:color(display-p3 0.0879 0.0920 0.0969);fill-opacity:1;"/>
    <rect x="1" y="1" width="38" height="38" rx="19" stroke="white" style="stroke:white;stroke-opacity:1;" stroke-width="2"/>
    <path d="M17.9355 17.1865C18.4883 16.7342 19.1486 16.4326 19.8523 16.3107C20.4179 16.2129 20.9961 16.2338 21.5504 16.3704C21.786 16.4285 22.0395 16.3375 22.1595 16.1266L26.2904 8.86831C26.4113 8.65579 26.6682 8.56193 26.8977 8.64642L27.5371 8.88183C27.8259 8.98819 27.951 9.32779 27.8001 9.59609L23.6517 16.9741C23.53 17.1906 23.5876 17.4615 23.7699 17.6301C24.2536 18.0776 24.6417 18.6205 24.9086 19.2264C25.2338 19.9644 25.3686 20.7722 25.3009 21.5759C24.9787 25.9665 19.3296 30.3489 19.0894 30.5338C18.9158 30.6669 18.6974 30.7276 18.4801 30.7032C18.2627 30.6788 18.0632 30.5712 17.9234 30.403L9.80645 20.6504C9.69281 20.5138 9.62501 20.345 9.61266 20.1678C9.60031 19.9906 9.64403 19.8139 9.73763 19.663C9.83122 19.512 9.96995 19.3943 10.1342 19.3265C10.2984 19.2587 10.4798 19.2444 10.6526 19.2854C14.2971 20.1501 17.9005 17.2155 17.9355 17.1865ZM22.6357 18.8608C22.1967 18.3448 21.5756 18.018 20.9017 17.9484C20.2278 17.8787 19.553 18.0716 19.0177 18.4868C18.8784 18.6028 18.8972 18.8252 19.0597 18.9053L22.8798 20.7895C23.213 20.9539 23.594 20.7072 23.5 20.3478C23.4607 20.1976 23.4106 20.0502 23.3497 19.9066C23.1834 19.5141 22.9407 19.1586 22.6357 18.8608ZM13.4379 22.3674C13.5238 22.4706 13.6475 22.5363 13.7816 22.5409C14.526 22.5665 15.2636 22.4027 15.9255 22.0666C16.1504 21.9524 16.4297 21.9928 16.5911 22.1867L17.0493 22.7373C17.2345 22.9597 17.1935 23.2944 16.9438 23.4406C16.5807 23.6531 16.1948 23.8231 15.7937 23.9475C15.4189 24.0637 15.2406 24.5334 15.4916 24.835L15.8851 25.3077C16.0245 25.4753 16.2568 25.534 16.4564 25.4465C17.2557 25.096 18.0206 24.6719 18.7412 24.1797C18.9593 24.0307 19.2567 24.0663 19.4257 24.2694L19.8724 24.8061C20.055 25.0255 20.0176 25.3538 19.7837 25.5175C19.1689 25.9479 18.522 26.3305 17.8489 26.6619C17.5501 26.809 17.4581 27.1977 17.6711 27.4536L18.3632 28.2852C18.542 28.5 18.862 28.5272 19.0698 28.3404C20.2592 27.2709 22.1872 25.3289 23.1035 23.2909C23.2089 23.0564 23.1007 22.7858 22.8702 22.6721L17.2523 19.9011C17.1057 19.8288 16.9334 19.8334 16.7884 19.9089C15.7212 20.4644 14.5717 20.8408 13.386 21.0246C12.982 21.0872 12.7766 21.5728 13.0381 21.887L13.4379 22.3674Z" fill="white" style="fill:white;fill-opacity:1;"/>
</svg>
