<svg width="28" height="28" viewBox="0 0 28 28" fill="none" xmlns="http://www.w3.org/2000/svg">
    <rect width="28" height="28" rx="14" fill="#161719" style="fill:#161719;fill:color(display-p3 0.0879 0.0920 0.0969);fill-opacity:1;"/>
    <path fill-rule="evenodd" clip-rule="evenodd" d="M8.13888 14.383C6.55037 11.515 7.58774 7.90173 10.4557 6.31322C13.3238 4.7247 16.937 5.76208 18.5255 8.63008C19.6575 10.6739 19.4499 13.0931 18.2023 14.8909L18.1919 16.1669L14.7297 18.0845L13.6176 17.4302C11.4309 17.5346 9.27091 16.4268 8.13888 14.383ZM19.6177 18.7705C20.1472 19.7266 19.8014 20.931 18.8454 21.4605C17.8894 21.99 16.685 21.6442 16.1555 20.6882L19.6177 18.7705ZM15.2092 18.9501L18.6714 17.0325L19.1508 17.898L15.6886 19.8156L15.2092 18.9501ZM12.6548 9.81184L11.6992 7.65059L11.1333 9.94496L8.97203 10.9006L11.2664 11.4665L12.2221 13.6278L12.7879 11.3334L14.9492 10.3777L12.6548 9.81184Z" fill="white" style="fill:white;fill-opacity:1;"/>
</svg>
