<svg viewBox="0 0 375 372" xmlns="http://www.w3.org/2000/svg"><path opacity=".05" d="M340 47H35v131.5l8.5 15.4v99.2L184.9 346l144.9-58v-94.1l10.2-15.4V47z" fill="none" stroke="#9F8051" stroke-width="3"/><path d="M149 190c.4 3.5 1.1 9 5.3 10.4 2.8.9 5.1.9 6.1.9.5 0 1.1.1 1.1.6 0 .6-.3.8-1.5.8-2.2 0-13.3-.3-16.9-.6-2.2-.2-2.7-.5-2.7-1 0-.4.2-.5.7-.7.7-.3.6-1.8.4-3.5l-4.7-51-24.3 51.4c-2.1 4.3-2.3 5.2-3.2 5.2-.7 0-1.2-1-3-4.5-2.5-4.8-11-21.7-11.4-22.7-.9-1.8-12.1-25.9-13.2-28.6l-4 46.1c-.1 1.6-.2 2.9-.2 4.6 0 2.4 1.2 3.2 2.6 3.5 1.7.4 2.9.4 3.5.4s1 .2 1 .5c0 .7-.5.9-1.5.9-3.6 0-8.6-.3-9.4-.3-.9 0-5.6.3-8.2.3-1 0-1.7-.1-1.7-.8 0-.4.5-.6 1-.6.8 0 1.5 0 2.9-.3 3.2-.6 3.4-4.1 3.9-8.1l7-63.6c.1-1.1.5-2 1.1-2s1 .4 1.5 1.5l29.9 61.5 28.8-61.4c.4-.9.8-1.6 1.5-1.6s1 .8 1.2 2.6L149 190zm37.7-26.7c3-2.9 16.3-16.9 22.3-23.1 5.9-6.1 6.3-7 6.3-8.2 0-.8-.5-1.6-1.3-1.9-.7-.3-.9-.5-.9-.9s.6-.6 1.5-.6c2.8 0 2.5.3 5.9.3 3 0 8.8-.3 10.4-.3 1.4 0 1.7.3 1.7.7s-.2.6-1.1.7c-1.9.2-3.6.6-5 1.2-2.4 1-4.3 2.2-10.2 7.8-8.6 8.3-19.8 19.4-22.3 22.2 6.2 6.7 24 24.8 28.6 29.1 8 7.5 11.4 9.7 16.1 10.6.9.2 1.9.3 2.8.3.8 0 1.4.2 1.4.7s-.4.7-1.5.7h-7.2c-8.5 0-10.8-1.1-15.4-4.7-5.9-4.6-23.5-23.5-32.1-33.7v10.1c0 9.4 0 17.1.5 21.2.3 2.8.9 5 3.8 5.4 1.4.2 3.3.4 3.9.4.9 0 1.2.4 1.2.7 0 .5-.4.7-1.5.7-5.4 0-11.5-.3-12-.3s-6.3.3-9.2.3c-1.1 0-1.6-.1-1.6-.7 0-.3.2-.7 1.1-.7.6 0 1.7-.1 2.5-.3 2-.4 2.5-2.6 2.9-5.5.5-4.1.5-11.8.5-21.2V157c0-15.3 0-18-.2-21.1-.2-3.3-1.2-5-3.3-5.5-1.1-.3-2.8-.4-3.5-.4-.8 0-1.1-.2-1.1-.6 0-.6.5-.8 1.6-.8 3.2 0 9.8.3 10.3.3s6.6-.3 9.6-.3c1.1 0 1.6.2 1.6.7 0 .4-.2.6-1.1.7-1.1.1-1.2.1-2.2.2-2.6.3-3.4 2.2-3.6 5.7-.2 3.1-.2 5.9-.2 21.1v6.3zm67.3-22.6c0-2-.2-3.1-1.5-3.1-2.4 0-9 3-9.5 3-.3 0-.9-.1-.9-.5 0-.3.3-.7.7-1 6.3-4.2 10-6.5 16.2-10.7.9-.6 1.7-1.2 2.3-1.2.8 0 .8 1.1.8 2.1 0 .3-.6 21.2-.6 43.5 0 9.8.2 18.5.5 22.8.2 3 .9 4.7 4.1 5 1.2.1 2 .2 2.6.3 1 .1 1.6.4 1.6 1 0 .5-.5.7-1.7.7-7.3 0-10.7-.3-11.1-.3-.5 0-5.8.3-12 .3-1.1 0-1.7-.2-1.7-.7 0-.4.4-.8 1.4-.8 1.6 0 2.6-.2 3.7-.3 3.6-.3 4.4-2 4.7-5.8.3-4.3.3-12.4.3-22.2v-32.1zm39.2 0c0-2-.2-3.1-1.5-3.1-2.4 0-9 3-9.5 3-.3 0-.9-.1-.9-.5 0-.3.3-.7.7-1 6.3-4.2 10-6.5 16.2-10.7.9-.6 1.7-1.2 2.3-1.2.8 0 .8 1.1.8 2.1 0 .3-.6 21.2-.6 43.5 0 9.8.2 18.5.5 22.8.2 3 .9 4.7 4.1 5 1.2.1 2 .2 2.6.3 1 .1 1.6.4 1.6 1 0 .5-.5.7-1.7.7-7.3 0-10.7-.3-11.1-.3-.5 0-5.8.3-12 .3-1.1 0-1.7-.2-1.7-.7 0-.4.4-.8 1.4-.8 1.6 0 2.6-.2 3.7-.3 3.6-.3 4.4-2 4.7-5.8.3-4.3.3-12.4.3-22.2v-32.1zm-178.2 95v-4.5c0-.7-.2-1.1-.9-1.2-.2 0-.5-.1-.7-.1-.1 0-.2 0-.2-.1s.1-.2.3-.2c.9 0 2.3.1 2.4.1.2 0 1.8-.1 2.5-.1 1.3 0 2.7.1 3.8.9.5.4 1.4 1.4 1.4 2.9 0 1.6-.7 3.1-2.5 4.9 1.7 2.2 3.1 4.1 4.4 5.4 1.1 1.2 2 1.4 2.6 1.5.4.1.7.1.8.1s.2.1.2.1c0 .1-.1.2-.5.2H127c-1.2 0-1.7-.1-2.2-.4-.9-.5-1.6-1.5-2.8-3.1-.9-1.2-1.9-2.6-2.3-3.1-.1-.1-.1-.1-.3-.1h-2.6c-.1 0-.1.1-.1.2v.5c0 2 0 3.7.1 4.6.1.6.2 1.1.8 1.2.3 0 .8.1.9.1s.2.1.2.1c0 .1-.1.2-.3.2-1.2 0-2.5-.1-2.6-.1 0 0-1.3.1-2 .1-.2 0-.3 0-.3-.2 0-.1 0-.1.2-.1s.4 0 .6-.1c.4-.1.5-.5.6-1.2.1-.9.1-2.5.1-4.6v-3.9zm1.7 1.8c0 .1 0 .2.1.3.3.2 1.3.3 2.2.3.5 0 1.1-.1 1.6-.4.7-.5 1.3-1.6 1.3-3.2 0-2.6-1.4-4.2-3.6-4.2-.6 0-1.2.1-1.4.1-.1 0-.2.1-.2.3v6.8zm17.1-.4v-3.8c0-.6-.2-.9-.8-1h-.5c-.1 0-.3-.1-.3-.1 0-.1.1-.2.3-.2.4 0 1 0 2.2.1h4.3s.7 0 .8-.1c.1 0 .1-.1.2-.1 0 0 .1 0 .1.1s-.1.4-.2.9c0 .4 0 .7-.1 1.1 0 .2 0 .3-.1.3s-.1-.1-.1-.2c0-.3-.1-.5-.1-.7-.1-.4-.3-.6-1.4-.6h-2.4c-.1 0-.1 0-.1.2v4.8c0 .1 0 .2.1.2.3 0 2.4 0 2.8-.1.5 0 .8-.1 1-.3.1-.1.1-.2.2-.2 0 0 .1 0 .1.1s-.1.5-.1 1.1c-.1.6-.1 1-.1 1.3 0 .2-.1.2-.1.2-.1 0-.1-.1-.1-.3 0-.1 0-.3-.1-.5-.1-.3-.2-.6-1-.6-.5 0-2.2-.1-2.5-.1-.1 0-.1.1-.1.1v4.4c0 .8.1 1.2.6 1.4.3.1.8.2 1.5.2.4 0 1.1 0 1.6-.1.6-.2.8-.6.9-1.4 0-.2.1-.3.2-.3s.1.2.1.3-.2 1.5-.2 1.8c-.1.4-.2.5-.9.5h-2.7c-.7 0-1.7-.1-2.5-.1-.5 0-.9.1-1.4.1-.2 0-.3 0-.3-.1s.1-.1.2-.1.3 0 .4-.1c.4-.1.6-.4.7-1.7v-6.4zm15 0v-3.8c0-.6-.1-.9-.8-1h-.5c-.2 0-.3-.1-.3-.2s.1-.1.3-.1c.8 0 1.4.1 2.1.1h4.6c.4 0 .7-.1.9-.1.1 0 .2-.1.2-.1.1 0 .1.1.1.2s-.1.4-.1.7c-.1.5-.1.9-.1 1.5 0 .2-.1.3-.1.3-.1 0-.1-.1-.2-.3 0-.2-.1-.8-.3-1.1-.3-.3-.7-.3-1.2-.3h-2.6c-.1 0-.2 0-.2.2v4.7c0 .1 0 .2.1.2h2.6c.9 0 1.1-.1 1.4-.4.1-.1.1-.2.2-.2s.1.1.1.2-.1.5-.1 1.1c-.1.6-.1.9-.1 1.2 0 .2 0 .3-.1.3s-.1-.1-.1-.3c0-.3-.1-1-1.1-1.1-.4-.1-2.3-.1-2.6-.1-.1 0-.1 0-.1.2v5c0 1 .2 1.2.8 1.3.3 0 .5.1.7.1s.3.1.3.1-.1.1-.3.1c-1.1 0-2.2-.1-2.3-.1h-.1c-.4 0-1.3.1-1.7.1-.2 0-.3 0-.3-.1s0-.1.2-.1h.4c.5-.1.5-.4.6-1.2s.1-2 .1-3.7v-3.3zm14.8 0v-3.8c0-.6-.2-.9-.8-1h-.5c-.1 0-.3-.1-.3-.1 0-.1.1-.2.3-.2.4 0 1 0 2.2.1h4.3s.7 0 .8-.1c.1 0 .1-.1.2-.1 0 0 .1 0 .1.1s-.1.4-.2.9c0 .4 0 .7-.1 1.1 0 .2 0 .3-.1.3s-.1-.1-.1-.2c0-.3-.1-.5-.1-.7-.1-.4-.3-.6-1.4-.6h-2.4c-.1 0-.1 0-.1.2v4.8c0 .1 0 .2.1.2.3 0 2.4 0 2.8-.1.5 0 .8-.1 1-.3.1-.1.1-.2.2-.2 0 0 .1 0 .1.1s-.1.5-.1 1.1c-.1.6-.1 1-.1 1.3 0 .2-.1.2-.1.2-.1 0-.1-.1-.1-.3 0-.1 0-.3-.1-.5-.1-.3-.2-.6-1-.6-.5 0-2.2-.1-2.5-.1-.1 0-.1.1-.1.1v4.4c0 .8.1 1.2.6 1.4.3.1.8.2 1.5.2.4 0 1.1 0 1.6-.1.6-.2.8-.6.9-1.4 0-.2.1-.3.2-.3s.1.2.1.3-.2 1.5-.2 1.8c-.1.4-.2.5-.9.5h-2.7c-.7 0-1.7-.1-2.5-.1-.5 0-.9.1-1.4.1-.2 0-.3 0-.3-.1s.1-.1.2-.1.3 0 .4-.1c.4-.1.6-.4.7-1.7v-6.4zm14.9 0v-3.8c0-.6-.2-.9-.8-1h-.5c-.1 0-.2 0-.2-.1s.1-.1.3-.1c.9 0 2.2.1 2.2.1.2 0 1.6-.1 2.2-.1 1.2 0 2.5.1 3.4.8.4.3 1.3 1.1 1.3 2.6 0 1.2-.6 2.6-2.2 4 1.5 1.9 2.8 3.4 3.9 4.6 1 1 1.6 1.2 2.2 1.3h.7c.2 0 .2.1.2.1 0 .1-.1.1-.4.1h-1.5c-1 0-1.4-.1-1.9-.3-.9-.4-1.5-1.3-2.6-2.7-.8-1-1.7-2.1-2-2.6-.1-.1-.1-.1-.3-.1h-2.2c-.1 0-.1 0-.1.1v.3c0 1.7 0 3.2.1 4 .1.5.1.9.8 1h.6c.2 0 .3.1.3.1 0 .1-.1.2-.3.2-1.1 0-2.3-.1-2.4-.1-.3 0-1.3.1-1.8.1-.2 0-.3 0-.3-.2 0-.1.1-.1.3-.1h.5c.4-.1.5-.3.5-.8.1-.8.1-2.5.1-4.1v-3.3zm1.6 1.5c0 .1 0 .2.1.3.3.1 1.1.3 1.9.3.4 0 1 0 1.4-.3.6-.4 1-1.3 1-2.7 0-2.3-1.2-3.5-3.1-3.5-.5 0-1 0-1.2.1-.1 0-.1.1-.1.2v5.6zm16.1-1.5v-3.8c0-.6-.2-.9-.8-1h-.5c-.1 0-.3-.1-.3-.1 0-.1.1-.2.3-.2.4 0 1 0 2.2.1h4.3s.7 0 .8-.1c.1 0 .1-.1.2-.1 0 0 .1 0 .1.1s-.1.4-.2.9c0 .4 0 .7-.1 1.1 0 .2 0 .3-.1.3s-.1-.1-.1-.2c0-.3-.1-.5-.1-.7-.1-.4-.3-.6-1.4-.6h-2.4c-.1 0-.1 0-.1.2v4.8c0 .1 0 .2.1.2.3 0 2.4 0 2.8-.1.5 0 .8-.1 1-.3.1-.1.1-.2.2-.2 0 0 .1 0 .1.1s-.1.5-.1 1.1c-.1.6-.1 1-.1 1.3 0 .2-.1.2-.1.2-.1 0-.1-.1-.1-.3 0-.1 0-.3-.1-.5-.1-.3-.2-.6-1-.6-.5 0-2.2-.1-2.5-.1-.1 0-.1.1-.1.1v4.4c0 .8.1 1.2.6 1.4.3.1.8.2 1.5.2.4 0 1.1 0 1.6-.1.6-.2.8-.6.9-1.4 0-.2.1-.3.2-.3s.1.2.1.3-.2 1.5-.2 1.8c-.1.4-.2.5-.9.5h-2.7c-.7 0-1.7-.1-2.5-.1-.5 0-.9.1-1.4.1-.2 0-.3 0-.3-.1s.1-.1.2-.1.3 0 .4-.1c.4-.1.6-.4.7-1.7v-6.4zm13.8-4.5c0-.7.1-.9.2-.9s.5.4.7.6 3.1 3.2 6 6.2c1.6 1.6 3.7 3.8 4.3 4.3l-.2-8.8c0-1.1-.1-1.5-.7-1.7-.4-.1-.7-.1-.8-.1-.2 0-.3-.1-.3-.2s.2-.1.4-.1c.9 0 1.8.1 2 .1s.9-.1 1.7-.1c.2 0 .3 0 .3.1s-.1.1-.2.2-.3 0-.5.1c-.5.1-.6.3-.6 1.6v10.5c0 1 0 1.2-.2 1.2-.1 0-.4-.1-1.4-1.1-.1 0-3-2.9-4.8-4.7-2.2-2.3-4.3-4.5-4.8-5l.3 8.2c0 1.4.2 2 .7 2.1.3.1.7.1.9.1s.3.1.3.1c0 .1-.1.1-.3.1-1.1 0-1.9-.1-2-.1s-.9.1-1.8.1c-.2 0-.3 0-.3-.1s.1-.1.3-.1c.1 0 .4 0 .7-.1.5-.1.6-.7.6-2.2-.5-10.1-.5-6.9-.5-10.3zm23.3 11.2c-1.8-1.6-2.2-3.6-2.2-5.4 0-1.2.5-3.3 2.1-4.8 1.1-1.1 2.8-1.9 5.6-1.9 1 0 1.7.1 2.8.2.7.1 1.3.2 1.8.2.2 0 .2.1.2.2 0 .2-.1.4-.1 1v1.9c0 .3-.1.4-.2.4s-.2-.1-.2-.4c0-.6-.3-1.4-.8-1.8-.6-.5-2.1-1.1-3.7-1.1-2.3 0-3.4.7-4 1.2-1.4 1.2-1.7 2.8-1.7 4.6 0 3.5 2.8 6.6 6.5 6.6 1.4 0 2.5-.1 3.2-.9.4-.4.6-.9.7-1.5 0-.2.1-.3.2-.3s.1.1.1.3-.3 1.9-.4 2.3c-.1.3-.2.4-.5.5-.7.3-2.1.4-3.3.4-2.8.2-4.7-.5-6.1-1.7zm18.5-6.7v-3.8c0-.6-.2-.9-.8-1h-.5c-.1 0-.3-.1-.3-.1 0-.1.1-.2.3-.2.4 0 1 0 2.2.1h4.3s.7 0 .8-.1c.1 0 .1-.1.2-.1 0 0 .1 0 .1.1s-.1.4-.2.9c0 .4 0 .7-.1 1.1 0 .2 0 .3-.1.3s-.1-.1-.1-.2c0-.3-.1-.5-.1-.7-.1-.4-.3-.6-1.4-.6h-2.4c-.1 0-.1 0-.1.2v4.8c0 .1 0 .2.1.2.3 0 2.4 0 2.8-.1.5 0 .8-.1 1-.3.1-.1.1-.2.2-.2 0 0 .1 0 .1.1s-.1.5-.1 1.1c-.1.6-.1 1-.1 1.3 0 .2-.1.2-.1.2-.1 0-.1-.1-.1-.3 0-.1 0-.3-.1-.5-.1-.3-.2-.6-1-.6-.5 0-2.2-.1-2.5-.1-.1 0-.1.1-.1.1v4.4c0 .8.1 1.2.6 1.4.3.1.8.2 1.5.2.4 0 1.1 0 1.6-.1.6-.2.8-.6.9-1.4 0-.2.1-.3.2-.3s.1.2.1.3-.2 1.5-.2 1.8c-.1.4-.2.5-.9.5h-2.7c-.7 0-1.7-.1-2.5-.1-.5 0-.9.1-1.4.1-.2 0-.3 0-.3-.1s.1-.1.2-.1.3 0 .4-.1c.4-.1.6-.4.7-1.7v-6.4z" opacity=".2" fill="#9F8051"/></svg>