<svg width="36" height="36" viewBox="0 0 36 36" fill="none" xmlns="http://www.w3.org/2000/svg">
    <rect width="36" height="36" rx="12" fill="url(#paint0_linear_632_373)"/>
    <path d="M15.8947 14.7143H11.8421C11.3368 14.7143 11 14.3714 11 13.8571C11 13.3429 11.3368 13 11.8421 13H15.8947C16.4 13 16.7368 13.3429 16.7368 13.8571C16.7368 14.3714 16.4 14.7143 15.8947 14.7143Z" fill="white"/>
    <path d="M18.4211 19.4286H11.8421C11.3368 19.4286 11 19.0857 11 18.5714C11 18.0571 11.3368 17.7143 11.8421 17.7143H18.4211C18.9263 17.7143 19.2632 18.0571 19.2632 18.5714C19.2632 19.0857 18.9263 19.4286 18.4211 19.4286Z" fill="white"/>
    <path d="M22.3683 12C22.8736 12 23.2104 12.3429 23.2104 12.8571L23.2104 19.7143C23.2104 20.2286 22.8736 20.5714 22.3683 20.5714C21.8631 20.5714 21.5262 20.2286 21.5262 19.7143L21.5262 12.8571C21.5262 12.3429 21.8631 12 22.3683 12Z" fill="white"/>
    <path d="M22.3684 12C22.621 12 22.7895 12.0857 22.9579 12.2572L25.4842 14.8286C25.821 15.1714 25.821 15.6857 25.4842 16.0286C25.1473 16.3714 24.6421 16.3714 24.3052 16.0286L22.3684 14.0572L20.4316 16.0286C20.0947 16.3714 19.5894 16.3714 19.2526 16.0286C18.9158 15.6857 18.9158 15.1714 19.2526 14.8286L21.7789 12.2572C21.9473 12.0857 22.1158 12 22.3684 12Z" fill="white"/>
    <path d="M20.9474 24.1429H11.8421C11.3368 24.1429 11 23.8 11 23.2857C11 22.7714 11.3368 22.4286 11.8421 22.4286H20.9474C21.4526 22.4286 21.7895 22.7714 21.7895 23.2857C21.7895 23.8 21.4526 24.1429 20.9474 24.1429Z" fill="white"/>
    <defs>
        <linearGradient id="paint0_linear_632_373" x1="0" y1="0" x2="42.9381" y2="12.8919" gradientUnits="userSpaceOnUse">
            <stop stop-color="#242424"/>
            <stop offset="1" stop-color="#141414"/>
        </linearGradient>
    </defs>
</svg>
