<svg width="28" height="28" viewBox="0 0 28 28" fill="none" xmlns="http://www.w3.org/2000/svg">
    <rect width="28" height="28" rx="14" fill="white" style="fill:white;fill-opacity:1;"/>
    <path fill-rule="evenodd" clip-rule="evenodd" d="M8.13887 14.3829C6.55035 11.5149 7.58773 7.90171 10.4557 6.3132C13.3237 4.72468 16.937 5.76206 18.5255 8.63006C19.6575 10.6739 19.4499 13.0931 18.2023 14.8908L18.1918 16.1669L14.7296 18.0845L13.6176 17.4302C11.4309 17.5346 9.2709 16.4268 8.13887 14.3829ZM19.6177 18.7705C20.1472 19.7265 19.8014 20.9309 18.8454 21.4604C17.8894 21.9899 16.685 21.6442 16.1555 20.6882L19.6177 18.7705ZM15.2092 18.9501L18.6714 17.0324L19.1508 17.898L15.6886 19.8156L15.2092 18.9501ZM12.6548 9.81181L11.6991 7.65055L11.1333 9.94493L8.97201 10.9006L11.2664 11.4665L12.2221 13.6277L12.7879 11.3333L14.9492 10.3777L12.6548 9.81181Z" fill="#161719" style="fill:#161719;fill:color(display-p3 0.0879 0.0920 0.0969);fill-opacity:1;"/>
</svg>
