<svg width="28" height="28" viewBox="0 0 28 28" fill="none" xmlns="http://www.w3.org/2000/svg">
    <path d="M22.9152 2.94138C23.8353 3.95469 24.7523 4.97108 25.6723 5.98439C27.8688 8.4114 28.6456 12.1043 27.421 16.1514C25.3402 23.0351 18.2603 28.3326 11.6098 27.9877C8.86802 27.846 6.62888 26.7649 5.08737 25.0648L2.33032 22.0218C3.87183 23.7219 6.11098 24.803 8.85279 24.9447C15.5032 25.2896 22.5832 19.9921 24.6639 13.1084C25.8886 9.06127 25.1117 5.36839 22.9152 2.94138Z" fill="url(#paint0_linear_673_1086)"/>
    <g style="mix-blend-mode:multiply">
        <path d="M25.6694 5.9813C24.7494 4.96799 23.8324 3.9516 22.9124 2.93829C23.0038 3.03993 23.0891 3.14465 23.1744 3.24937C23.9268 4.08096 24.6793 4.91255 25.4318 5.74107C27.6283 8.16808 28.4051 11.861 27.1804 15.908C25.0997 22.7918 18.0197 28.0893 11.3693 27.7444C8.84686 27.6119 6.7509 26.6879 5.23071 25.2157C6.76613 26.8265 8.94739 27.846 11.6039 27.9815C18.2543 28.3265 25.3343 23.0289 27.415 16.1452C28.6397 12.0981 27.8629 8.40524 25.6664 5.97822L25.6694 5.9813Z" fill="#E68805"/>
    </g>
    <path d="M16.3929 0.0154463C23.0433 0.360403 26.7478 6.22158 24.6641 13.1053C22.5803 19.989 15.5034 25.2866 8.85294 24.9416C2.19948 24.5936 -1.50197 18.7355 0.57876 11.8518C2.66254 4.96804 9.74251 -0.32951 16.3929 0.0154463Z" fill="url(#paint1_linear_673_1086)"/>
    <path style="mix-blend-mode:overlay" opacity="0.7" d="M24.8071 13.2685C26.047 9.17215 25.2367 5.43922 22.9762 3.01221C25.1239 5.43922 25.8764 9.09823 24.6639 13.1053C22.5801 19.989 15.5032 25.2865 8.8528 24.9416C6.15364 24.7999 3.94496 23.7527 2.40649 22.0957C2.43696 22.1327 2.46742 22.1696 2.50093 22.2035L2.56491 22.2743C4.10337 23.9221 6.30901 24.9632 8.99903 25.1048C15.6494 25.4498 22.7294 20.1522 24.8102 13.2685H24.8071Z" fill="url(#paint2_linear_673_1086)"/>
    <path style="mix-blend-mode:overlay" opacity="0.7" d="M15.1225 3.52347C19.8994 3.77294 22.562 7.98018 21.0662 12.9266C19.5703 17.87 14.4828 21.6799 9.70591 21.4304C4.92601 21.1809 2.26646 16.9706 3.76227 12.0273C5.25808 7.08083 10.3426 3.27399 15.1225 3.52347Z" fill="url(#paint3_linear_673_1086)"/>
    <path d="M15.3298 3.52347C20.1066 3.77294 22.7692 7.98018 21.2734 12.9266C19.7776 17.87 14.69 21.6799 9.91318 21.4304C5.13329 21.1809 2.47373 16.9706 3.96954 12.0273C5.46535 7.08083 10.5499 3.27399 15.3298 3.52347Z" fill="url(#paint4_linear_673_1086)"/>
    <path d="M4.99923 12.5355C6.49504 7.58902 11.5796 3.78218 16.3595 4.03166C17.2003 4.07478 17.9741 4.24418 18.6748 4.51521C17.7365 3.94234 16.6093 3.58814 15.3298 3.52038C10.5499 3.27091 5.46534 7.07775 3.96953 12.0242C2.73876 16.099 4.32596 19.6717 7.59786 20.9438C5.03883 19.3761 3.90555 16.1513 4.99923 12.5324V12.5355Z" fill="#CF4505"/>
    <path d="M17.8155 10.8569L15.5551 9.9175L14.6198 7.6568C14.5101 7.39193 14.306 7.25641 14.0684 7.24717C13.8308 7.23793 13.5566 7.35805 13.3037 7.6106L11.1407 9.76042L8.40807 10.5243C7.77136 10.7029 7.42407 11.2819 7.63732 11.8117L8.56039 14.0816L7.80792 16.8166C7.66474 17.3371 7.89017 17.6852 8.32582 17.7006C8.4233 17.7037 8.53298 17.6913 8.64874 17.6575L11.3814 16.909L13.648 17.833C13.7455 17.8731 13.843 17.8946 13.9435 17.8977C14.3791 17.9131 14.7904 17.5866 14.9366 17.0692L15.7043 14.3342L17.8582 12.1751C18.3609 11.67 18.3426 11.0786 17.8125 10.86L17.8155 10.8569Z" fill="url(#paint5_linear_673_1086)"/>
    <path style="mix-blend-mode:overlay" opacity="0.4" d="M25.2155 10.0992L7.63742 24.8122C4.89866 24.3656 2.757 22.9242 1.44702 20.8545L22.8849 2.91055C24.5422 4.72157 25.3983 7.24715 25.2155 10.0992Z" fill="url(#paint6_linear_673_1086)"/>
    <path style="mix-blend-mode:overlay" opacity="0.4" d="M16.3929 0.0153858C15.2901 -0.0431336 14.1751 0.0585053 13.0722 0.292583L1.16364 10.2624C0.941247 10.783 0.743227 11.3127 0.578718 11.8517C0.155261 13.25 -0.0244803 14.6052 0.00598427 15.8834L18.565 0.351102C17.8826 0.172464 17.1575 0.0554254 16.3929 0.0153858Z" fill="url(#paint7_linear_673_1086)"/>
    <path style="mix-blend-mode:overlay" opacity="0.5" d="M20.8072 21.0885C19.1164 22.7733 17.4743 23.8605 17.1423 23.5217C16.8102 23.1798 17.913 21.5382 19.6038 19.8535C21.2976 18.1687 22.9366 17.0815 23.2687 17.4203C23.6008 17.7622 22.4979 19.4038 20.8072 21.0885Z" fill="url(#paint8_radial_673_1086)"/>
    <defs>
        <linearGradient id="paint0_linear_673_1086" x1="1.89163" y1="30.0605" x2="31.4981" y2="6.81112" gradientUnits="userSpaceOnUse">
            <stop stop-color="#D13F05"/>
            <stop offset="0.29" stop-color="#F67205"/>
            <stop offset="0.37" stop-color="#F67605"/>
            <stop offset="0.45" stop-color="#F68405"/>
            <stop offset="0.54" stop-color="#F69B05"/>
            <stop offset="0.56" stop-color="#F6A205"/>
            <stop offset="0.6" stop-color="#F69005"/>
            <stop offset="0.64" stop-color="#F67F05"/>
            <stop offset="0.69" stop-color="#F67505"/>
            <stop offset="0.76" stop-color="#F67205"/>
            <stop offset="1" stop-color="#D13F05"/>
        </linearGradient>
        <linearGradient id="paint1_linear_673_1086" x1="20.8286" y1="16.6257" x2="-3.22677" y2="4.73194" gradientUnits="userSpaceOnUse">
            <stop stop-color="#FFAF02"/>
            <stop offset="1" stop-color="#F56D05"/>
        </linearGradient>
        <linearGradient id="paint2_linear_673_1086" x1="7.39355" y1="25.3789" x2="26.7607" y2="5.80505" gradientUnits="userSpaceOnUse">
            <stop stop-color="white" stop-opacity="0"/>
            <stop offset="0.48" stop-color="white"/>
            <stop offset="1" stop-color="white" stop-opacity="0"/>
        </linearGradient>
        <linearGradient id="paint3_linear_673_1086" x1="7.98466" y1="22.1604" x2="16.8557" y2="3.18469" gradientUnits="userSpaceOnUse">
            <stop stop-color="white" stop-opacity="0"/>
            <stop offset="0.48" stop-color="white"/>
            <stop offset="1" stop-color="white" stop-opacity="0"/>
        </linearGradient>
        <linearGradient id="paint4_linear_673_1086" x1="23.5522" y1="9.14749" x2="4.16" y2="14.9314" gradientUnits="userSpaceOnUse">
            <stop stop-color="#CF4505"/>
            <stop offset="1" stop-color="#E45905"/>
        </linearGradient>
        <linearGradient id="paint5_linear_673_1086" x1="21.6236" y1="17.756" x2="0.456376" y2="7.27243" gradientUnits="userSpaceOnUse">
            <stop stop-color="#FFAF02"/>
            <stop offset="1" stop-color="#F56D05"/>
        </linearGradient>
        <linearGradient id="paint6_linear_673_1086" x1="9.42874" y1="8.69166" x2="17.7092" y2="18.301" gradientUnits="userSpaceOnUse">
            <stop stop-color="white"/>
            <stop offset="1" stop-color="white" stop-opacity="0"/>
        </linearGradient>
        <linearGradient id="paint7_linear_673_1086" x1="5.44087" y1="4.17334" x2="9.96577" y2="8.713" gradientUnits="userSpaceOnUse">
            <stop stop-color="white"/>
            <stop offset="1" stop-color="white" stop-opacity="0"/>
        </linearGradient>
        <radialGradient id="paint8_radial_673_1086" cx="0" cy="0" r="1" gradientUnits="userSpaceOnUse" gradientTransform="translate(23.9488 23.7653) rotate(45.7833) scale(0.829911 4.31451)">
            <stop stop-color="white"/>
            <stop offset="0.09" stop-color="white" stop-opacity="0.9216"/>
            <stop offset="0.24" stop-color="white" stop-opacity="0.7225"/>
            <stop offset="0.43" stop-color="white" stop-opacity="0.4356"/>
            <stop offset="0.66" stop-color="white" stop-opacity="0.1681"/>
            <stop offset="0.93" stop-color="white" stop-opacity="0.01"/>
            <stop offset="1" stop-color="white" stop-opacity="0"/>
        </radialGradient>
    </defs>
</svg>
