<svg width="20" height="20" viewBox="0 0 20 20" fill="none" xmlns="http://www.w3.org/2000/svg">
    <g clip-path="url(#clip0_673_1135)">
        <path d="M2.75359 8.90051L5.33661 11.2595L3.21772 10.0011L0.598145 7.63171L2.75359 8.90051Z" fill="url(#paint0_linear_673_1135)"/>
        <path d="M7.96899 0.462311L10.3507 3.06806L11.5129 5.25886L9.13855 2.69264L7.96899 0.462311Z" fill="url(#paint1_linear_673_1135)"/>
        <path d="M3.56984 13.2487L6.17603 15.5076L3.36139 16.3825L0.677734 14.1714L3.56984 13.2487Z" fill="url(#paint2_linear_673_1135)"/>
        <path d="M14.4423 0.792847L16.6701 3.45623L15.6888 6.27108L13.4109 3.68676L14.4423 0.792847Z" fill="url(#paint3_linear_673_1135)"/>
        <path d="M11.1217 6.45365C11.5573 6.91434 11.9929 7.37504 12.4284 7.83585C12.5139 7.92633 12.9612 8.26667 12.8302 8.41503C12.7452 8.51133 12.5697 8.3812 12.4767 8.3512C12.2379 8.27411 11.9697 8.25601 11.7205 8.26196C11.2183 8.27411 10.7195 8.41516 10.2763 8.64953C9.60013 9.00735 9.02347 9.58851 8.67026 10.2661C8.38868 10.8066 8.23662 11.435 8.30218 12.0445C8.32263 12.2352 8.3582 12.7831 7.98342 12.5378C7.43266 12.1774 6.96097 11.5882 6.47875 11.1403C6.07039 10.7609 5.8369 10.2274 5.78311 9.67725C5.72164 9.04837 5.88523 8.40474 6.17784 7.8506C6.54927 7.14723 7.13845 6.55392 7.83929 6.17825C8.47854 5.83568 9.23961 5.66489 9.9578 5.81659C10.3105 5.89108 10.6498 6.04464 10.9291 6.27394C10.9974 6.33008 11.0617 6.39007 11.1218 6.45353L11.1217 6.45365Z" fill="url(#paint4_linear_673_1135)"/>
        <path d="M19.9272 7.6642C19.8419 7.24875 19.7031 6.84544 19.5094 6.46841C19.4063 6.26775 19.2809 6.05011 19.125 5.79144L16.9417 3.16003C17.0998 3.42366 17.2267 3.64551 17.3309 3.85014C17.5286 4.23858 17.6655 4.64523 17.75 5.07233C17.7968 5.30857 17.8374 5.57764 17.8809 5.9051L15.0658 7.73584C15.0628 7.80153 15.0587 7.86759 15.0536 7.93378C15.0433 8.06763 15.0287 8.20124 15.0099 8.33423C15.0003 8.40141 14.9898 8.46883 14.978 8.53651L17.2563 11.0151C17.2672 10.9493 17.2769 10.8837 17.2857 10.8183C17.3029 10.6888 17.316 10.5587 17.325 10.4285C17.3294 10.364 17.3328 10.2997 17.3351 10.2356L20.0613 8.47726C20.0164 8.15749 19.9746 7.89486 19.9273 7.66408L19.9272 7.6642Z" fill="url(#paint5_linear_673_1135)"/>
        <path d="M8.29378 15.0245C8.22723 15.0335 8.1608 15.0415 8.0945 15.0484C7.96251 15.0622 7.8299 15.0718 7.69729 15.077C7.63136 15.0796 7.56543 15.0811 7.49974 15.0816L5.58485 17.8401C5.51458 17.8283 5.43291 17.8171 5.37553 17.8064C5.15976 17.7658 4.94511 17.7188 4.73566 17.6524C4.41492 17.5507 4.10001 17.4223 3.79154 17.2883C3.48022 17.1531 3.19356 16.9747 2.91235 16.7864L5.56886 18.949C5.75786 19.076 5.94822 19.2023 6.14961 19.309C6.482 19.485 6.83992 19.6232 7.19338 19.7509C7.3887 19.8214 7.59988 19.8815 7.80759 19.9263C7.93227 19.953 8.05769 19.9768 8.18311 20L8.182 19.999L8.18311 19.9999L10.0269 17.3262C10.0909 17.3263 10.1551 17.3255 10.2195 17.3233C10.3486 17.3193 10.4777 17.311 10.6064 17.2987C10.6711 17.2925 10.7358 17.2853 10.8005 17.2771L8.29378 15.0247V15.0245Z" fill="url(#paint6_linear_673_1135)"/>
        <path d="M17.4768 9.89777C17.3905 10.1654 17.3028 10.4332 17.1955 10.6934C16.9719 11.2362 16.6973 11.7771 16.394 12.2797C16.2471 12.523 16.0718 12.773 15.9029 13.0112L12.9458 12.511C12.8436 12.6208 12.7385 12.728 12.6308 12.8325C12.5238 12.9362 12.414 13.0372 12.3017 13.1353L12.6771 16.138C12.3592 16.3487 12.0813 16.5275 11.8398 16.6714C11.3955 16.9361 10.9304 17.1543 10.4412 17.3215C10.1818 17.4103 9.89018 17.498 9.53809 17.598L12.036 19.7917C12.378 19.6971 12.6612 19.6141 12.913 19.5298C13.3872 19.3713 13.8388 19.1624 14.2692 18.9085C14.5062 18.7687 14.7671 18.6022 15.0798 18.3965L14.6885 15.4708C14.6819 15.4199 14.9665 15.2175 15.0065 15.1788C15.1105 15.078 15.2119 14.9745 15.3104 14.8685L18.1931 15.3806C18.3564 15.1489 18.5193 14.9163 18.6649 14.6729C18.9561 14.1859 19.2189 13.6615 19.432 13.1355C19.5344 12.8829 19.6176 12.6231 19.6994 12.3633L17.4766 9.89764L17.4768 9.89777Z" fill="url(#paint7_linear_673_1135)"/>
        <path d="M17.4768 9.89775C17.3906 10.1653 17.3027 10.4333 17.1956 10.6933C16.9718 11.2363 16.6975 11.7768 16.394 12.2797C16.2422 12.5311 16.0728 12.7717 15.903 13.0112L12.9458 12.5109C12.8437 12.6207 12.7386 12.728 12.6309 12.8324C12.5238 12.9362 12.414 13.0372 12.3017 13.1352L12.6771 16.1382C12.354 16.3524 12.0846 16.5258 11.8398 16.6714C11.3959 16.9359 10.9302 17.1544 10.4413 17.3215C10.1819 17.4102 9.89025 17.498 9.53815 17.598L8.29374 15.0245C8.1615 15.0423 8.02864 15.0563 7.89554 15.0659C7.7638 15.0754 7.63169 15.0807 7.4997 15.0815C7.4997 15.0815 5.5822 17.8438 5.58208 17.8438C5.45368 17.821 5.32529 17.7977 5.19764 17.7712C4.61627 17.6504 4.02907 17.427 3.50384 17.1511C3.29861 17.0434 3.10465 16.9151 2.91218 16.7862L4.02895 13.7703C3.94542 13.6895 3.86511 13.6053 3.78827 13.5181C3.7118 13.4313 3.6388 13.3413 3.56965 13.2488L0.677543 14.1714C0.548776 13.8967 0.446532 13.6672 0.364488 13.4569C0.209571 13.0601 0.111912 12.6493 0.0635778 12.2264C0.0369321 11.9929 0.0177225 11.7282 0 11.408L2.63792 9.67019C2.64362 9.60661 2.65031 9.5429 2.65787 9.47907C2.67324 9.3503 2.69257 9.22164 2.71563 9.09411C2.72728 9.02966 2.73979 8.96521 2.75343 8.90051L0.597978 7.63159C0.688325 7.3852 0.779788 7.13868 0.887858 6.89935C1.11193 6.40259 1.37777 5.91041 1.66864 5.4496C1.81302 5.2208 1.97215 5.00155 2.13153 4.78316L4.75061 5.15499C4.84691 5.05162 4.9458 4.95073 5.04718 4.85232C5.14794 4.75453 5.25118 4.6591 5.35652 4.56627L5.09143 1.90412C5.38589 1.7016 5.63178 1.53713 5.85498 1.39769C6.2616 1.14374 6.68806 0.9282 7.13533 0.755673C7.37403 0.663585 7.64296 0.570132 7.96866 0.462179L9.13822 2.69251C9.26537 2.6702 9.39327 2.65149 9.52142 2.63674C9.6487 2.62211 9.7766 2.61121 9.9045 2.60439C9.90475 2.60451 11.7314 0 11.7314 0C11.8579 0.0120224 11.9845 0.0246644 12.1105 0.0401572C12.3166 0.0654413 12.5319 0.104731 12.7372 0.157034C13.0976 0.248875 13.4741 0.352986 13.8234 0.493908C14.0358 0.579676 14.2398 0.685894 14.4422 0.792856L13.4108 3.68677C13.5 3.76126 13.5864 3.83922 13.6695 3.9204C13.7523 4.00134 13.8319 4.08562 13.908 4.17275L16.9416 3.16002C17.0996 3.42365 17.2265 3.6455 17.3307 3.85013C17.5273 4.23633 17.6658 4.64769 17.7498 5.07232C17.7966 5.30855 17.8372 5.57763 17.8807 5.90521L15.0656 7.73595C15.0626 7.80164 15.0585 7.8677 15.0534 7.93389C15.0431 8.06775 15.0285 8.20148 15.0097 8.33434C15.0001 8.40152 14.9896 8.46895 14.9778 8.53662L17.4768 9.89775ZM11.3421 9.61851C11.8939 8.55137 11.9123 7.04386 10.8891 6.2396C10.2033 5.70046 9.22237 5.66786 8.39561 5.94636C7.25865 6.32921 6.32456 7.26993 5.94966 8.40958C5.68482 9.21446 5.71146 10.1598 6.21488 10.8412C6.79774 11.6301 7.91785 11.8949 8.86643 11.6455C9.90375 11.3727 10.8537 10.5631 11.3421 9.61851Z" fill="url(#paint8_linear_673_1135)"/>
        <path d="M11.4987 3.42216C13.5059 4.03592 14.614 6.1205 14.402 8.15562C14.2368 9.74096 13.4273 11.2285 12.306 12.3432C11.2524 13.3906 9.87616 14.1581 8.39789 14.3791C6.9263 14.5991 5.26374 14.1777 4.25529 13.0193C3.38454 12.0191 3.08338 10.5553 3.26507 9.26812C3.47774 7.76124 4.26124 6.35884 5.33314 5.29256C6.30887 4.32198 7.6673 3.54238 9.03998 3.28843C9.83588 3.14118 10.7035 3.17886 11.4988 3.42204L11.4987 3.42216ZM12.6286 10.0561C13.2516 8.84746 13.4768 7.31926 12.7939 6.08716C12.3214 5.23444 11.4706 4.6006 10.5183 4.39188C9.67241 4.20646 8.77799 4.34825 7.97416 4.6705C6.59267 5.2244 5.43737 6.32141 4.81274 7.6725C4.16048 9.08308 4.14598 10.8947 5.16707 12.0662C6.09719 13.1334 7.70857 13.4359 9.06812 13.0419C10.559 12.6097 11.9214 11.4283 12.6286 10.0561Z" fill="url(#paint9_linear_673_1135)"/>
        <mask id="mask0_673_1135" style="mask-type:luminance" maskUnits="userSpaceOnUse" x="0" y="0" width="18" height="18">
            <path d="M17.4768 9.89775C17.3906 10.1653 17.3027 10.4333 17.1956 10.6933C16.9718 11.2363 16.6975 11.7768 16.394 12.2797C16.2422 12.5311 16.0728 12.7717 15.903 13.0112L12.9458 12.5109C12.8437 12.6207 12.7386 12.728 12.6309 12.8324C12.5238 12.9362 12.414 13.0372 12.3017 13.1352L12.6771 16.1382C12.354 16.3524 12.0846 16.5258 11.8398 16.6714C11.3959 16.9359 10.9302 17.1544 10.4413 17.3215C10.1819 17.4102 9.89025 17.498 9.53815 17.598L8.29374 15.0245C8.1615 15.0423 8.02864 15.0563 7.89554 15.0659C7.7638 15.0754 7.63169 15.0807 7.4997 15.0815C7.4997 15.0815 5.5822 17.8438 5.58208 17.8438C5.45368 17.821 5.32529 17.7977 5.19764 17.7712C4.61627 17.6504 4.02907 17.427 3.50384 17.1511C3.29861 17.0434 3.10465 16.9151 2.91218 16.7862L4.02895 13.7703C3.94542 13.6895 3.86511 13.6053 3.78827 13.5181C3.7118 13.4313 3.6388 13.3413 3.56965 13.2488L0.677543 14.1714C0.548776 13.8967 0.446532 13.6672 0.364488 13.4569C0.209571 13.0601 0.111912 12.6493 0.0635778 12.2264C0.0369321 11.9929 0.0177225 11.7282 0 11.408L2.63792 9.67019C2.64362 9.60661 2.65031 9.5429 2.65787 9.47907C2.67324 9.3503 2.69257 9.22164 2.71563 9.09411C2.72728 9.02966 2.73979 8.96521 2.75343 8.90051L0.597978 7.63159C0.688325 7.3852 0.779788 7.13868 0.887858 6.89935C1.11193 6.40259 1.37777 5.91041 1.66864 5.4496C1.81302 5.2208 1.97215 5.00155 2.13153 4.78316L4.75061 5.15499C4.84691 5.05162 4.9458 4.95073 5.04718 4.85232C5.14794 4.75453 5.25118 4.6591 5.35652 4.56627L5.09143 1.90412C5.38589 1.7016 5.63178 1.53713 5.85498 1.39769C6.2616 1.14374 6.68806 0.9282 7.13533 0.755673C7.37403 0.663585 7.64296 0.570132 7.96866 0.462179L9.13822 2.69251C9.26537 2.6702 9.39327 2.65149 9.52142 2.63674C9.6487 2.62211 9.7766 2.61121 9.9045 2.60439C9.90475 2.60451 11.7314 0 11.7314 0C11.8579 0.0120224 11.9845 0.0246644 12.1105 0.0401572C12.3166 0.0654413 12.5319 0.104731 12.7372 0.157034C13.0976 0.248875 13.4741 0.352986 13.8234 0.493908C14.0358 0.579676 14.2398 0.685894 14.4422 0.792856L13.4108 3.68677C13.5 3.76126 13.5864 3.83922 13.6695 3.9204C13.7523 4.00134 13.8319 4.08562 13.908 4.17275L16.9416 3.16002C17.0996 3.42365 17.2265 3.6455 17.3307 3.85013C17.5273 4.23633 17.6658 4.64769 17.7498 5.07232C17.7966 5.30855 17.8372 5.57763 17.8807 5.90521L15.0656 7.73595C15.0626 7.80164 15.0585 7.8677 15.0534 7.93389C15.0431 8.06775 15.0285 8.20148 15.0097 8.33434C15.0001 8.40152 14.9896 8.46895 14.9778 8.53662L17.4768 9.89775ZM11.3421 9.61851C11.8939 8.55137 11.9123 7.04386 10.8891 6.2396C10.2033 5.70046 9.22237 5.66786 8.39561 5.94636C7.25865 6.32921 6.32456 7.26993 5.94966 8.40958C5.68482 9.21446 5.71146 10.1598 6.21488 10.8412C6.79774 11.6301 7.91785 11.8949 8.86643 11.6455C9.90375 11.3727 10.8537 10.5631 11.3421 9.61851Z" fill="white"/>
        </mask>
        <g mask="url(#mask0_673_1135)">
            <path d="M13.0979 12.9268C15.9426 9.96429 16.3264 5.71663 13.9552 3.43936C11.5839 1.16209 7.35558 1.71756 4.51088 4.68005C1.66619 7.64253 1.28237 11.8902 3.65361 14.1675C6.02484 16.4447 10.2532 15.8893 13.0979 12.9268Z" fill="url(#paint10_radial_673_1135)"/>
        </g>
    </g>
    <defs>
        <linearGradient id="paint0_linear_673_1135" x1="2.47214" y1="9.77963" x2="3.13856" y2="9.33013" gradientUnits="userSpaceOnUse">
            <stop offset="0.13" stop-color="#F99C73"/>
            <stop offset="0.37" stop-color="#F7976E"/>
            <stop offset="0.64" stop-color="#F18B61"/>
            <stop offset="0.9" stop-color="#E9784D"/>
        </linearGradient>
        <linearGradient id="paint1_linear_673_1135" x1="9.34713" y1="3.20192" x2="9.96708" y2="2.66468" gradientUnits="userSpaceOnUse">
            <stop offset="0.28" stop-color="#E9784D"/>
            <stop offset="0.68" stop-color="#F28E64"/>
            <stop offset="1" stop-color="#F99C73"/>
        </linearGradient>
        <linearGradient id="paint2_linear_673_1135" x1="2.39322" y1="16.0286" x2="4.34693" y2="13.7815" gradientUnits="userSpaceOnUse">
            <stop offset="0.13" stop-color="#F99C73"/>
            <stop offset="0.37" stop-color="#F7976E"/>
            <stop offset="0.64" stop-color="#F18B61"/>
            <stop offset="0.9" stop-color="#E9784D"/>
        </linearGradient>
        <linearGradient id="paint3_linear_673_1135" x1="13.9035" y1="4.56192" x2="16.6312" y2="2.1445" gradientUnits="userSpaceOnUse">
            <stop offset="0.08" stop-color="#E9784D"/>
            <stop offset="0.44" stop-color="#F28E64"/>
            <stop offset="0.74" stop-color="#F99C73"/>
            <stop offset="0.76" stop-color="#F5946A"/>
            <stop offset="0.81" stop-color="#EE845A"/>
            <stop offset="0.88" stop-color="#EA7B50"/>
            <stop offset="0.95" stop-color="#E9784D"/>
        </linearGradient>
        <linearGradient id="paint4_linear_673_1135" x1="6.03755" y1="11.6063" x2="11.3843" y2="6.07389" gradientUnits="userSpaceOnUse">
            <stop offset="0.06" stop-color="#E9784D"/>
            <stop offset="0.18" stop-color="#E56C42"/>
            <stop offset="0.34" stop-color="#E36139"/>
            <stop offset="0.46" stop-color="#E4663D"/>
            <stop offset="0.61" stop-color="#E8764B"/>
            <stop offset="0.62" stop-color="#E9784D"/>
            <stop offset="0.68" stop-color="#EC7F55"/>
            <stop offset="0.85" stop-color="#F5946B"/>
            <stop offset="0.96" stop-color="#F99C73"/>
        </linearGradient>
        <linearGradient id="paint5_linear_673_1135" x1="14.8284" y1="8.99013" x2="19.4072" y2="5.15407" gradientUnits="userSpaceOnUse">
            <stop stop-color="#E36139"/>
            <stop offset="0.1" stop-color="#E3623A"/>
            <stop offset="0.14" stop-color="#E56940"/>
            <stop offset="0.17" stop-color="#E9784D"/>
            <stop offset="0.18" stop-color="#E9784D"/>
            <stop offset="0.24" stop-color="#F0885E"/>
            <stop offset="0.31" stop-color="#F5936A"/>
            <stop offset="0.42" stop-color="#F89A71"/>
            <stop offset="0.71" stop-color="#F89B72"/>
            <stop offset="0.74" stop-color="#F18B61"/>
            <stop offset="0.78" stop-color="#EC8055"/>
            <stop offset="0.82" stop-color="#E9794E"/>
            <stop offset="0.95" stop-color="#E9784D"/>
        </linearGradient>
        <linearGradient id="paint6_linear_673_1135" x1="8.76238" y1="14.7069" x2="4.9464" y2="19.3606" gradientUnits="userSpaceOnUse">
            <stop offset="0.16" stop-color="#E36139"/>
            <stop offset="0.18" stop-color="#E3633B"/>
            <stop offset="0.27" stop-color="#E66F45"/>
            <stop offset="0.39" stop-color="#E8764B"/>
            <stop offset="0.74" stop-color="#E9784D"/>
            <stop offset="0.76" stop-color="#F0885E"/>
            <stop offset="0.78" stop-color="#F5936A"/>
            <stop offset="0.81" stop-color="#F89A71"/>
            <stop offset="0.9" stop-color="#F99C73"/>
        </linearGradient>
        <linearGradient id="paint7_linear_673_1135" x1="10.6099" y1="18.992" x2="18.738" y2="10.6959" gradientUnits="userSpaceOnUse">
            <stop offset="0.19" stop-color="#F99C73"/>
            <stop offset="0.25" stop-color="#F89A71"/>
            <stop offset="0.28" stop-color="#F5936A"/>
            <stop offset="0.29" stop-color="#F0885E"/>
            <stop offset="0.31" stop-color="#E9784D"/>
            <stop offset="0.4" stop-color="#E8764B"/>
            <stop offset="0.44" stop-color="#E66F45"/>
            <stop offset="0.46" stop-color="#E36139"/>
            <stop offset="0.51" stop-color="#E3623A"/>
            <stop offset="0.53" stop-color="#E56940"/>
            <stop offset="0.54" stop-color="#E9784D"/>
            <stop offset="0.56" stop-color="#F0885E"/>
            <stop offset="0.58" stop-color="#F5936A"/>
            <stop offset="0.6" stop-color="#F89A71"/>
            <stop offset="0.68" stop-color="#F89B72"/>
            <stop offset="0.7" stop-color="#F18B61"/>
            <stop offset="0.72" stop-color="#EC8055"/>
            <stop offset="0.75" stop-color="#E9794E"/>
            <stop offset="0.84" stop-color="#E9784D"/>
        </linearGradient>
        <linearGradient id="paint8_linear_673_1135" x1="1.42511" y1="4.32966" x2="17.0225" y2="13.9326" gradientUnits="userSpaceOnUse">
            <stop stop-color="#F99C73"/>
            <stop offset="0.03" stop-color="#F9A279"/>
            <stop offset="0.18" stop-color="#FCB890"/>
            <stop offset="0.31" stop-color="#FEC59E"/>
            <stop offset="0.43" stop-color="#FFCAA3"/>
            <stop offset="0.53" stop-color="#FDC49D"/>
            <stop offset="0.67" stop-color="#F9B48C"/>
            <stop offset="0.84" stop-color="#F29970"/>
            <stop offset="1" stop-color="#E9784D"/>
        </linearGradient>
        <linearGradient id="paint9_linear_673_1135" x1="3.55854" y1="6.22139" x2="13.9728" y2="11.3663" gradientUnits="userSpaceOnUse">
            <stop stop-color="#E9784D"/>
            <stop offset="0.09" stop-color="#EC7F54"/>
            <stop offset="0.48" stop-color="#F99C73"/>
            <stop offset="0.95" stop-color="#E9784D"/>
        </linearGradient>
        <radialGradient id="paint10_radial_673_1135" cx="0" cy="0" r="1" gradientUnits="userSpaceOnUse" gradientTransform="translate(8.78083 8.70978) rotate(-46.162) scale(7.46116 5.93846)">
            <stop offset="0.6" stop-color="#E9784D"/>
            <stop offset="0.66" stop-color="#E9784D"/>
            <stop offset="0.73" stop-color="#E9784D"/>
            <stop offset="0.75" stop-color="#EA7B51"/>
            <stop offset="0.78" stop-color="#ED875D"/>
            <stop offset="0.8" stop-color="#F29A71"/>
            <stop offset="0.82" stop-color="#F9B58D"/>
            <stop offset="0.84" stop-color="#FFCAA3"/>
            <stop offset="0.85" stop-color="#FFCAA3"/>
            <stop offset="0.97" stop-color="#FFCAA3"/>
        </radialGradient>
        <clipPath id="clip0_673_1135">
            <rect width="20" height="20" fill="white"/>
        </clipPath>
    </defs>
</svg>
