<svg width="18" height="18" viewBox="0 0 18 18" fill="none" xmlns="http://www.w3.org/2000/svg">
    <path d="M0.90918 7.5376C0.90918 3.74414 3.98047 0.672852 7.76562 0.672852C11.5508 0.672852 14.6221 3.74414 14.6221 7.5376C14.6221 8.94873 14.1904 10.252 13.4434 11.3228L17.021 14.917C17.2866 15.1826 17.4277 15.5396 17.4277 15.9214C17.4277 16.7183 16.8301 17.3408 16.0166 17.3408C15.6348 17.3408 15.2695 17.208 14.9956 16.9341L11.3848 13.3232C10.3472 13.9956 9.11035 14.394 7.76562 14.394C3.98047 14.394 0.90918 11.3228 0.90918 7.5376ZM2.86816 7.5376C2.86816 10.2354 5.06787 12.4351 7.76562 12.4351C10.4717 12.4351 12.6631 10.2354 12.6631 7.5376C12.6631 4.83154 10.4717 2.64014 7.76562 2.64014C5.06787 2.64014 2.86816 4.83154 2.86816 7.5376Z" fill="white" fill-opacity="0.4"/>
</svg>
