<svg width="16" height="16" viewBox="0 0 16 16" fill="none" xmlns="http://www.w3.org/2000/svg">
    <path fill-rule="evenodd" clip-rule="evenodd" d="M8 0C3.58172 0 0 3.58172 0 8C0 12.4183 3.58172 16 8 16C12.4183 16 16 12.4183 16 8C16 3.58172 12.4183 0 8 0ZM11.6092 4.3962C11.2187 4.00567 10.5855 4.00567 10.195 4.3962L8.00543 6.58575L5.81588 4.3962C5.42535 4.00567 4.79219 4.00567 4.40166 4.3962C4.01114 4.78672 4.01114 5.41989 4.40166 5.81041L6.59122 7.99997L4.4016 10.1896C4.01108 10.5801 4.01108 11.2133 4.4016 11.6038C4.79212 11.9943 5.42529 11.9943 5.81581 11.6038L8.00543 9.41418L10.1951 11.6038C10.5856 11.9943 11.2187 11.9943 11.6093 11.6038C11.9998 11.2133 11.9998 10.5801 11.6093 10.1896L9.41965 7.99997L11.6092 5.81041C11.9997 5.41989 11.9997 4.78672 11.6092 4.3962Z" fill="#ABB1BB" style="fill:#ABB1BB;fill:color(display-p3 0.6722 0.6930 0.7333);fill-opacity:1;"/>
</svg>
