<svg width="28" height="28" viewBox="0 0 28 28" fill="none" xmlns="http://www.w3.org/2000/svg">
    <rect width="28" height="28" rx="14" fill="#FFF500" style="fill:#FFF500;fill:color(display-p3 1.0000 0.9600 0.0000);fill-opacity:1;"/>
    <path d="M21.1389 17.1194C20.7592 16.9001 20.3445 16.8027 19.9366 16.8142C19.7831 16.8185 19.6399 16.7392 19.5621 16.6069C19.4844 16.4745 19.4845 16.3099 19.5618 16.176L20.9521 13.7679C21.166 13.3974 21.0295 12.9212 20.6623 12.7092L17.7396 11.0217C17.6098 10.9468 17.5296 10.8082 17.5288 10.6573C17.528 10.5064 17.6065 10.3655 17.7355 10.2871C18.0626 10.0886 18.3466 9.80609 18.5516 9.451C19.1961 8.33463 18.8223 6.91131 17.716 6.27257C16.61 5.63403 15.1905 6.0224 14.5459 7.1388C14.341 7.49383 14.2384 7.88083 14.23 8.2632C14.2267 8.41423 14.1441 8.55286 14.0129 8.62768C13.8817 8.70248 13.7217 8.70199 13.5918 8.62702L10.6692 6.93964C10.3019 6.72759 9.82516 6.84972 9.61122 7.22028L8.25507 9.5692C8.17981 9.69956 8.17804 9.85954 8.25038 9.99036C8.32271 10.1212 8.45856 10.2038 8.60795 10.2074C8.97999 10.2163 9.35445 10.3155 9.69857 10.5143C10.8049 11.1529 11.1788 12.5758 10.5342 13.6922C9.88961 14.8087 8.47041 15.1962 7.36439 14.5573C7.02019 14.3585 6.74699 14.0838 6.55324 13.7662C6.47536 13.6385 6.33605 13.5619 6.18643 13.5647C6.03682 13.5675 5.89941 13.6493 5.82411 13.7797L4.38751 16.2679C4.17346 16.6387 4.30464 17.115 4.67195 17.3271L14.6651 23.0966C15.0322 23.3086 15.5143 23.1864 15.7284 22.8156L17.1992 20.2682C17.2764 20.1344 17.4192 20.0523 17.5725 20.0534C17.7258 20.0545 17.8663 20.1386 17.9393 20.2736C18.1332 20.6326 18.425 20.9431 18.8046 21.1623C19.9107 21.8013 21.3297 21.4137 21.9743 20.2971C22.6189 19.1807 22.2451 17.7578 21.1389 17.1194Z" fill="black" style="fill:black;fill-opacity:1;"/>
</svg>
