<?xml version="1.0" encoding="utf-8"?>
<!-- Generator: Adobe Illustrator 15.0.0, SVG Export Plug-In . SVG Version: 6.00 Build 0)  -->
<!DOCTYPE svg PUBLIC "-//W3C//DTD SVG 1.1//EN" "http://www.w3.org/Graphics/SVG/1.1/DTD/svg11.dtd">
<svg version="1.1" id="Слой_1" xmlns="http://www.w3.org/2000/svg" xmlns:xlink="http://www.w3.org/1999/xlink" x="0px" y="0px"
	 width="640px" height="480px" viewBox="0 0 640 480" enable-background="new 0 0 640 480" xml:space="preserve">
<rect fill="#244AA5" width="640" height="480"/>
<path fill="#D0A650" d="M249.675,227.677c0,0,1.247-0.841,1.703-0.953c0.456-0.111,2.067-0.615,2.067-0.615s1.034-0.531,1.582-0.531
	c0.577,0,1.702,0.615,2.067,1.146c0.334,0.533,2.159,1.456,2.159,1.456s1.246,0.421,1.489,0c0.244-0.419,0.791-0.728,1.368-0.728
	c0.578,0,0.669-0.531,0.669-0.952s0.244-0.952,0.669-1.456c0.456-0.531,1.368-0.84,1.368-0.84s1.247-0.532,1.368-1.26
	c0.122-0.729,1.368-1.26,2.067-1.373c0.67-0.111,0-0.42,1.824-0.223c1.824,0.223,2.067-0.42,2.159-0.953
	c0.122-0.531,0-1.063,1.156-0.951c1.154,0.111,1.702,0.111,1.702-0.531c0-0.617,1.034-0.953-0.791-1.457
	c-1.824-0.531-1.703-0.112-1.824-0.952c-0.121-0.84,0-0.728-1.246-0.84c-1.247-0.112-0.578-0.728-0.669-1.372
	c-0.122-0.615-0.456-0.952-0.668-1.371c-0.244-0.421-0.913-0.421-0.913-1.037c0-0.615-0.121-0.951-0.79-0.951
	c-0.668,0-0.913,0-0.913-0.617c0-0.615,0.122-1.147,0.791-1.147c0.668,0,1.033-0.532,0.912-1.147
	c-0.121-0.617-0.121-1.988-0.121-1.988l0.912-1.064c0,0,2.736-2.211,2.979-2.632c0.244-0.421,1.155-0.728,1.581,0.112
	c0.457,0.84,0.669,1.064,1.034,1.455c0.334,0.421,1.368,0.112,1.581-0.307c0.244-0.42,0.334-1.961,0.943-2.801
	c0.608-0.812,1.034-1.232,1.185-1.904c0.152-0.672,0.457-1.231,1.186-1.231s1.185-0.952,1.185-1.512
	c0-0.562,0.304-1.093,1.186-1.233c0.881-0.139,1.337-0.672,1.642,0.141c0.304,0.813,0.607,0.813,1.186,1.093
	c0.608,0.28,1.489,0.672,1.915,0.28c0.456-0.421,0.669-1.093,1.337-0.672c0.638,0.42,1.095,0,1.247-0.813
	c0.151-0.813,0.304-1.904,0.304-1.904s0.152-0.561,1.185-0.561c1.034,0,0.304-0.672,0.882-1.092c0.608-0.42,0.608-0.811,1.337-0.56
	c0.729,0.28,1.915-0.336,1.337-1.008c-0.608-0.673-1.915-1.765-1.186-2.604c0.73-0.813,1.034-2.184,0.305-2.324
	c-0.729-0.14-1.793,0.141-1.916-0.672c-0.151-0.813-0.456-1.371,0.457-1.512c0.881-0.141,2.371-0.141,2.827-0.561
	c0.456-0.42,1.915-0.672,1.915-1.903s0.456-1.372,0.607-2.044c0.152-0.672,0.152-2.1-0.455-2.771
	c-0.609-0.673-1.49-1.652-1.643-2.045c-0.151-0.42-0.729-1.092-1.641-1.371c-0.881-0.281-1.642-0.42-1.642-1.093
	c0-0.672,0.608,0.14,0.608-1.651c0-1.765-1.185-2.045-1.185-2.045l-1.794-1.092c0,0-3.162-0.84-4.013-0.84
	c-0.851,0-1.823-0.896-0.851-1.456s1.215-1.568,0.851-2.352c-0.365-0.784-0.608-1.344-1.945-1.68s-1.702-0.672-1.095-1.456
	c0.608-0.784,0.73-1.344,1.459-0.784c0.73,0.56,1.945,0.784,2.918,0.336c0.974-0.448,1.338-0.784,1.824-0.336
	c0.487,0.448,1.095,0.896,1.824,0.224c0.73-0.672,2.067-0.784,2.675-0.448c0.607,0.336,2.067,0.224,2.554,0
	c0.486-0.224,1.459-1.008,1.459-1.456c0-0.448,0.608-1.232,1.215-1.568c0.608-0.336,1.338-1.456,1.945-1.456
	c0.609,0,0.852-0.672,0.852-1.121c0-0.448,0.487-1.344,0.608-1.68c0.122-0.336,1.337-0.812,2.189-0.112
	c0.851,0.672,1.945,0.896,1.945,0.896s1.217,0.224,1.824,0c0.608-0.224,1.46-0.448,2.311,0.112c0.852,0.56,2.067,0.56,2.067,0.56
	s0.243-0.896,0.243-1.344c0-0.448,0.243-1.232-0.243-1.568s-1.095-0.784-0.121-1.456c0.973-0.672,0.973-0.56,1.945-0.56
	s1.58,0.112,2.31,0.112s1.946,0.672,1.946,1.344s0.486,1.12,1.094,1.456c0.608,0.336,1.338,0.672,1.095,1.232
	s-0.243,1.008,0.486,0.896s0.973,0.336,0.973,0.896c0,0.56,0.243,0.896,0.973,1.12s1.095,0.672,1.095,1.232
	s-0.122,0.896,0.122,1.456c0.243,0.56,0.973,1.456,0.973,1.456s1.337,1.568-0.365,0.784c-1.702-0.784-2.067-1.12-2.675-1.008
	c-0.607,0.112-0.973,0.448-0.973,0.448s-0.852,0.224-1.459,0.224c-0.608,0-1.217,1.232-0.243,1.457
	c0.973,0.224,1.337,0.447,1.337,1.232c0,0.784-0.364,0.56-0.852,1.12c-0.485,0.56-0.851,0.224-1.702,0.224
	c-0.851,0-1.095,0.672-1.095,1.344c0,0.672,0.365,0.56,0.73,1.119c0.364,0.561,0.973,0.672,1.581,0.113
	c0.607-0.561,1.094-0.896,1.458,0.111c0.365,1.008,0.852,1.008,1.582,1.008c0.729,0,0.973,0,1.58-0.336s1.338,0,1.459,0.896
	c0.122,0.896,0.73,1.008,1.338,1.344s0.973,0.561,1.095,1.119c0.122,0.561,0.485,0.785,1.095,0.449
	c0.607-0.336,1.58-0.561,1.945-0.112c0.364,0.448,0.973,1.344,0.973,1.344l0.121,1.12l2.311,0.783c0,0,0.244,0.561,0.244,1.009
	s0.363,0.672,0.973,0.56c0.607-0.111,1.702,0,1.702,0s0.851-0.336,0.851-1.008s0.365-0.896,0.973-0.896
	c0.608,0,1.946,0.449,2.311-0.223c0.365-0.673,1.46-0.896,2.311-0.561c0.852,0.336,3.04,1.232,3.04,1.232s-0.243,0.111,0.486,1.231
	s2.067,1.12,2.067,1.12s0.122,1.008,0.365,1.456c0.242,0.448,1.337,0.672,1.945,0.224c0.607-0.447,1.459-1.008,2.188-1.008
	s1.216,0,1.216-0.447c0-0.449-0.729-0.785-0.729-1.457s0.729-0.672,0.852-1.344s0.852,0,1.337,0.336
	c0.487,0.336,1.095,0.896,1.095,1.344c0,0.448,0.973,2.017,1.581,2.24c0.608,0.225,2.188,0.336,2.676-0.224
	c0.485-0.56,1.702-0.784,1.58,0.56s-0.365,1.456,0.486,1.904c0.852,0.447,0.973,2.016,0.243,2.464s-0.973,0.56-0.973,1.345
	c0,0.783-0.243,1.68,0.365,2.127c0.607,0.448,0.973,0.784,0.973,1.232c0,0.447,0.729,2.464,0.729,2.464s0.365,2.017,0.243,2.464
	c-0.122,0.448-0.365,1.232,0.729,1.12s1.338-0.112,1.338,0.784c0,0.896,0.364,1.231-0.243,1.567
	c-0.608,0.337-0.973,1.456-0.365,1.681c0.608,0.225,1.095,0.561,1.216,1.008c0.122,0.448,1.095,1.232,1.702,0.784
	c0.608-0.448,0.729-0.673,1.217-0.784c0.485-0.111,0.851-0.447,0.364-1.008s-0.607-1.119-0.121-1.455s0.729-1.457,0.729-1.457
	s0.729-1.008,1.58,0c0.852,1.008,0.974,0.672,1.581,0.672c0.608,0,0.852,0.56,0.852,1.121c0,0.559,1.216,0.447,1.216,1.344
	c0,0.895,0.243,3.023,0.243,3.023s0,1.232,0.729,1.68s0.608,0.561,0.243,1.119c-0.365,0.562-0.243,1.457-0.243,1.905
	s0.243,0.672-0.364,1.12c-0.608,0.447-0.852,1.008-0.486,1.68s0.243,1.119,1.216,1.904c0.973,0.783,0.852,1.119,0.852,1.68
	s0.973,1.344,0.973,1.904c0,0.56,0.729,1.231,1.337,1.344c0.608,0.111,1.338,1.119,1.338,1.68s0.122,2.017,0.122,2.017
	s-0.122,0.336,0.607,0.336s1.216,0.784,1.46-0.112c0.242-0.896,0.973-1.008,1.458-1.232c0.487-0.225,1.46-0.672,1.946-0.336
	s1.095,0.336,1.58,0.336c0.487,0,2.797,0.111,2.797,0.111s0.608-0.111,0.973,0.785c0.365,0.896,1.46,1.904,0.852,2.352
	c-0.607,0.448-0.607,1.344,0.122,1.344s1.459,0,1.459,0.561c0,0.56,0.122,1.008,0.729,0.672s0.973-0.448,1.217,0
	c0.242,0.449,0.729,0.449,1.337,0.785c0.608,0.336,0.851,0.111,1.216-0.336c0.365-0.449,1.824-0.897,1.824-0.897
	s1.945-0.448,2.675-0.224c0.729,0.224,1.702,0.672,1.702,0.672s0.487,1.121,0.244,1.793c-0.244,0.672-0.486,0.559-0.244,1.566
	c0.244,1.009-0.242,1.121-0.729,1.009s-0.974-0.112-0.974,0.784s-0.485,1.119-0.485,1.904c0,0.783,0,0.672-0.487,1.008
	c-0.485,0.336-0.607,0.895,0.122,1.008c0.729,0.112,0.486,0.896,0.486,1.344c0,0.448-0.121,1.456-0.121,1.456s0.121,0.56-0.73,0.56
	s-1.581-0.111-1.702,0.448c-0.122,0.56-1.095,1.456-0.243,2.017s0.608,0.896,0.121,1.119c-0.485,0.225-0.851,1.344,0.122,1.681
	c0.973,0.336,0.851,0.672,0.243,1.119c-0.607,0.449-1.824,0.785-1.824,1.457s-0.243,0.672-0.973,0.784
	c-0.729,0.111-1.095,1.008-0.243,2.128c0.851,1.119,1.095,0.896,1.702,0.896c0.608,0,0.608-0.896,0.608-0.896
	s2.067,0.111,2.675,0.111c0.608,0,1.459,0,1.946-0.336c0.485-0.336,1.824-0.896,1.824,0.112s0.243,0.896,0.851,1.344
	s0.729,0.112,1.217,0.784c0.485,0.672,0.607,0.111,0.973-0.672c0.364-0.784,1.094-1.568,1.702-0.672
	c0.607,0.896,0.607,0.672,1.337,0.672c0.73,0,0.973,0.336,0.973,0.896c0,0.561,0.73,0.561,1.582,0.448
	c0.851-0.112,0.973,0.448,1.337,1.008c0.365,0.561,0.486,0.448,0.973,0.448s0.973,0,1.338-0.448
	c0.364-0.447,0.852-1.008,1.337-0.336c0.487,0.672,1.46,0.561,1.703-0.224c0.242-0.784,1.337-1.456,1.945-0.561
	c0.608,0.896,1.094,0.896,1.703,1.009c0.607,0.111,1.458,0.111,1.823,0.672c0.364,0.56,1.581,1.456,0.729,2.128
	c-0.851,0.672-1.823,1.567-1.095,1.791c0.729,0.226,1.217,0.448,1.703,1.009s2.067,0.783,2.796,0.896
	c0.73,0.111,1.339,0.223,2.189-0.449c0.852-0.672,1.702-0.672,1.58,0.225c-0.121,0.896,0.366,1.904,0.366,1.904
	s0.607,1.456,0.607,2.016c0,0.561-0.122,0.672,0.973,1.344s0.973,1.12,1.824,0.448c0.851-0.672,1.094-1.008,1.094-1.567
	c0-0.561,0-1.792,0-1.792s1.217-0.225,1.703-0.561s2.432-1.345,2.918-0.896c0.487,0.448,1.095,0.336,1.581,0.112
	c0.486-0.226,1.459-0.226,1.945-0.226s1.338,0.113,2.311-0.672c0.973-0.783,0.973-0.559,1.581,0
	c0.608,0.562,0.608,1.233,0.243,1.681c-0.365,0.448,0,1.456,0.851,1.456c0.852,0,1.095,0.448,1.095,1.008
	c0,0.561,0.122,1.344,0.243,1.792c0.122,0.448,0.122,0.672,1.459,1.009c1.338,0.336,1.095,1.119,1.338,1.68
	c0.243,0.56,0.243,1.008-0.486,1.008s-0.973,0.336-1.095,0.896c-0.121,0.561-1.215,0.784-1.215,0.784l-1.095-0.224
	c0,0-0.729,0-1.095,0.447c-0.365,0.448-1.095,1.345-0.607,2.128c0.485,0.785,0.485,1.233,0,1.569
	c-0.487,0.336-0.73,2.016-1.217,1.68s-1.095,0.111-1.58,0.336c-0.487,0.224-0.365,1.792,0.607,2.352s1.217,1.345,1.217,1.345
	l1.094,1.68c0,0-0.365,0.336-0.608,0.896c-0.243,0.561-0.973,1.68-0.243,1.904c0.73,0.224,0.365,1.456-0.364,1.456
	s-1.581-0.336-1.702,0.561c-0.122,0.895-0.487,0.672-1.217,0.559c-0.729-0.111-2.553-0.559-3.04,0.336
	c-0.486,0.897-0.607,1.233-1.459,1.121c-0.851-0.112-0.486,1.344-0.243,1.903c0.243,0.561,1.095,1.345,1.095,1.345
	s0.729,0.56,0.729,1.68s-0.486,1.008-0.973,0.224s-1.459-0.672-1.581,0.225c-0.122,0.896-0.243,2.239-1.095,2.239
	c-0.851,0-1.216,0.225-1.58,0.673c-0.365,0.447-0.973,1.231-0.973,1.68c0,0.447-0.122,0.896-0.73,1.009
	c-0.607,0.111-0.729,1.344-0.729,1.344s-1.459,0.223-1.581,0.783c-0.121,0.561,0.122,1.456-1.094,1.568
	c-1.217,0.112-1.946,0.896-2.311,1.456c-0.365,0.56-0.486,1.008,0,1.567c0.486,0.561,0.852,2.353,1.459,2.688
	s1.095,0.448,0.973,1.344c-0.121,0.896-0.851,1.568,0.122,1.568s1.58,0.224,1.216,1.008c-0.364,0.783-0.364,0.896-1.094,1.231
	c-0.73,0.336-1.095,0.336-1.095,1.232s0.243,0.896-0.365,1.232c-0.607,0.336-0.607,0.784-0.607,1.456s-0.244,0.447-0.974,1.231
	s-1.702,0.784-2.311,0.561c-0.607-0.225-0.729-0.225-0.851-0.896c-0.122-0.672-1.216-0.672-1.824-0.56
	c-0.607,0.111-1.459,0.784-1.459,0.784s-1.095,0.672-0.608,1.231s0.243,1.456-0.607,1.345c-0.852-0.113-2.797,0.896-3.405-0.113
	c-0.608-1.008-2.311-1.68-2.554-0.336c-0.242,1.345,0.73,1.232,0.608,2.576c-0.122,1.345-0.365,1.345-0.851,1.792
	c-0.487,0.448-0.487,0.784-0.609,1.345c-0.121,0.56-0.242,1.791,0.609,2.24c0.851,0.447,1.215,1.68,1.215,2.352s0,1.344,0.852,1.344
	s1.581-0.112,1.703-0.896c0.121-0.784,1.823-1.232,1.945,0.336c0.121,1.567,0.121,2.352,0.729,3.024
	c0.607,0.672,1.095,1.567,1.58,1.903c0.487,0.336,1.308,3.191,1.308,3.191c-1.186,0.253-1.489,1.792-2.25,2.101
	c-0.426,0.168-0.881,0.027-1.276,0.309c-0.304,0.223-0.304,0.644-0.729,0.84c-0.882,0.392-0.729-0.98-1.794-0.477
	c-0.973,0.448-1.063,1.568-2.462,1.092c-0.73-0.252-1.186-3.107-1.398-3.779c-0.121-0.393-0.882-1.568-1.125-1.933
	c-0.82-1.231-2.462,0-2.979-0.364c-0.821-0.56-0.456-1.512-1.702-1.624c-2.523-0.168-0.729,1.541-1.794,1.933
	c-2.036,0.728-2.036-1.904-3.557-0.7c-0.577,0.448,0.912,0.728,0.548,1.513c-0.305,0.644-1.794,1.623-1.703,2.379
	c0.122,1.036,1.246,1.344,1.581,2.213c0.912,2.295-0.608,3.892-2.888,2.1c-1.277-1.008-1.521-2.884-3.496-2.744
	c-0.456,0.028-0.607,0.504-1.064,0.561c-0.456,0.027-0.82-0.421-1.307-0.28c-0.729,0.252-0.092,0.756-0.244,1.176
	c0,0-0.973,0.812-1.124,1.036c-0.548,0.729-0.364,1.372-1.155,1.96c-0.669,0.504-1.186,0.196-1.915,0.979
	c-0.76,0.813-0.821,2.017-1.794,2.801c-0.486,0.392-0.82-1.176-1.429-0.141c-0.091,0.141-0.183,0.28-0.243,0.421
	c-0.152,0.308-0.183,0.447-0.03,0.783c1.276,2.464-1.398,3.389-2.22,5.124c-0.364,0.729,0.639,1.4,0.243,1.961
	c-0.273,0.419-1.458,1.567-1.55,1.819s-0.213,0.813-0.426,1.008c-0.213,0.224-0.942,0.112-1.003,0.448
	c-0.062,0.393,0.76,0.7,0.973,0.951c0.273,0.309-0.122,0.729-0.03,0.813c1.367,1.372,0.547,0.952,1.246,2.156
	c0.091,0.168,0.517-0.141,0.669,0.309c0.151,0.419-0.334,0.391-0.152,0.867c0.03,0.141,1.003,1.4,1.003,1.429
	c0.062,0.419-1.854,1.287-2.279,1.287c-1.155,0.028,1.003-2.38-0.882-2.38c-0.82,0-0.882,1.876-1.094,2.072
	c-0.092,0.084-0.852,0-1.034,0c-1.216,0-2.007,1.512-2.492,1.652c-0.305,0.111-0.973-0.168-1.49-0.084
	c-0.486,0.084-1.064,0.56-1.521,0.56c-0.304,0-0.455-0.196-0.699-0.336c-0.547-0.308-1.55-0.448-2.157-0.645
	c-0.335-0.111-0.973,0.421-1.187,0.28c-0.396-0.252,0.273-0.952-0.638-1.456c-0.122-0.056-0.791-1.68-0.761-1.764
	c0.304-1.064,0.639-2.212,0.487-3.332c-0.184-1.147-1.977-2.128-2.463-3.052c-0.365-0.7-0.699-2.549-1.398-3.024
	c-0.76-0.504-1.459-1.484-1.854-2.239c-0.121-0.225,0.243-0.617-0.03-1.008c-0.305-0.421-0.882-0.589-1.034-1.148
	c-0.121-0.448,0-1.904-0.517-2.212c-0.577-0.336-4.286-0.784-5.198-0.868c-0.486-0.028-0.852-0.028-1.216-0.393
	c-0.152-0.14-0.395-0.728-0.517-0.728c-0.365-0.028-0.791,0.168-1.155,0.196c-0.273,0.027-0.73-0.168-0.973,0
	c-1.186,0.812-1.49,1.848-2.614,2.715c-1.155,0.869-2.433,0.841-3.588,1.849c-0.729,0.644-1.216,2.184-1.945,2.912
	c-0.304,0.309-0.79,0-0.912,0.14c-0.608,0.756-1.459,1.205-2.067,1.904c-0.121,0.141-0.091,0.42-0.243,0.532l-1.307,0.336
	c-0.335,0.056-0.973-0.028-1.247,0.056c-0.607,0.196-0.577,0.841-2.645,1.26c-0.151,0.028-0.426,0.168-0.547,0.253
	c-0.244,0.168-0.426,0.419-0.669,0.587c-0.152,0.113-0.608-0.083-0.882-0.055c-0.517,0.083-0.82,0.531-1.307,0.587
	c-1.095,0.14-2.858-0.504-3.709-0.168c-0.518,0.196-1.946,1.792-2.463,1.96c-0.334,0.112-0.577-0.027-0.941-0.168
	c-0.184,0.225-0.609,1.961-0.761,2.353c0,0.027-2.341,1.987-2.523,2.212c-0.304,0.336-0.426,0.7-0.79,1.064
	c-0.243,0.251-0.639,0.476-1.034,0.476c-0.485,0-1.216-0.364-1.672-0.448c-0.881-0.141-3.526-0.252-4.316-0.084
	c-0.821,0.168-0.578,2.521-2.614,2.744c-1.186,0.141-2.28,0.363-3.496,0.477c-0.121,0-0.852-0.504-1.581-0.309
	c-0.273,0.084-1.155,0.98-1.155,1.26v0.504c0,0.084,0.244,0.393,0.213,0.42c-0.456,0.532-1.489,1.372-1.824,1.988
	c-0.091,0.168-0.212,0.364-0.364,0.477c-0.273,0.195-1.672,0.728-1.794,0.979c-0.334,0.841,0.973,1.624,0.852,1.96
	c-0.365,1.092-1.824,2.128-2.28,3.136c-0.183,0.421,0.486,1.82,0.456,2.296c-0.152,1.316-0.607,2.996-0.547,4.285
	c0,0.251,0.182,1.567,0.273,1.707c0.151,0.252,0.486,0.393,0.699,0.616s1.824,3.36,1.885,3.696c0.304,2.324-3.07,1.512-1.125,3.836
	c0.305,0.363,0.547,0.756,0.882,1.063c0.426,0.421,2.919,2.24,2.949,2.437c0.06,0.336-2.007,0.672-2.372,1.035
	c-0.973,0.953-1.793,2.717-2.736,3.696c-0.577,0.616-1.094-0.056-1.854,1.373c-0.274,0.531,0,1.735-0.334,2.071
	c-0.487,0.504-0.882-0.168-1.368,0.056c-0.213,0.085-0.334,0.7-0.548,0.868c-0.547,0.477-5.411,3.053-5.867,2.828
	c-0.243-0.111-0.517-0.924-0.547-1.176c-0.061-0.28-0.365-0.896-0.608-1.092c-1.247-1.064-3.162-1.261-4.378,0.027
	c-0.304,0.336-0.334,0.84-0.73,1.176c-0.668,0.561-1.429,1.064-2.067,1.625c-0.121,0.111-0.486,0.531-0.638,0.504
	c-0.486-0.057-1.672-1.4-1.976-1.765c-0.547-0.644-2.128-2.184-2.28-2.911c0-2.492-1.945-5.097-2.767-7.532l1.216,0.028
	c1.368-0.925,0.973-3.192,3.436-2.297c0.304-0.42,0.273-0.867,0.852-1.176c0.212-0.112,0.607-0.224,0.729-0.42
	c0.821-1.26,1.794-6.076,0.943-7.308c-0.76-1.12-1.551-1.064-2.159-2.913c-0.183-0.504,0.151-1.091,0-1.651
	c-0.122-0.448-0.942-3.107-1.064-3.304c-0.152-0.225-0.669-0.504-0.699-0.645c-0.031-0.224-0.213-3.107-0.122-3.332
	c-0.82-2.24-3.587-3.668-3.739-3.92c-0.334-0.531-0.668-1.231-1.033-1.82c-0.426-0.699-0.426-1.063-0.669-1.735
	c-0.091-0.308-0.547-0.561-0.577-0.896c-0.061-0.587,1.611-1.819,1.55-2.856c-0.03-0.336-1.064-1.344-0.851-1.903
	c0.212-0.588,1.276-1.904,1.246-2.548c-0.061-0.868-1.672-2.744-1.885-3.668c-0.091-0.448,0.639-0.812,0.456-1.12
	c-0.212-0.392-1.915-1.933-2.188-2.38c-0.213-0.336,0.638-0.784,0.03-1.4c-0.548-0.56-0.091-0.363-0.244-0.84
	c-0.182-0.531-0.79-1.008-1.034-1.567c-0.212-0.477-1.672-5.741-1.642-6.049c-0.243-0.364-0.668-0.672-0.881-1.036
	c-0.213-0.363-0.305-1.063-0.487-1.344c-0.031-0.027-1.642-0.504-1.945-0.98c-0.244-0.391-0.304-1.68-0.73-2.323
	c-0.213-0.309-0.547-0.252-0.791-0.477c-0.212-0.168-0.182-0.476-0.334-0.672c-0.486-0.672-1.459-0.056-2.128-2.52
	c-0.881-0.616-1.702-1.148-2.462-1.903c-0.152-0.141-0.243-0.309-0.425-0.393c-0.608-0.252-1.52-0.336-2.037-0.784
	c-0.304,0-1.915-0.056-2.098-0.168c-0.182-0.112-0.364-0.812-0.486-0.84c-0.852-0.168-2.25-0.084-2.979-0.7
	c-0.578-0.504-0.699-2.939-1.733-2.604c-0.122-0.057-0.274-0.112-0.426-0.085c-0.669-0.868-2.98-0.979-3.922-1.54
	c-0.273-0.168-1.156-0.027-1.156-0.279c0.213-0.476,0.152-0.868,0.183-1.345c-0.517-0.504-0.852-1.091-1.216-1.455
	c-0.881-0.196-0.547-0.28-1.094-0.616c-1.521-0.112-1.673,0.141-2.646,1.035c-0.243,0.225-0.729,0.281-1.034,0.449
	c-0.516,0.279-0.668,1.203-1.398,0.783c-0.243-0.14-0.395-0.364-0.577-0.532c-0.426-0.364-0.669-0.168-0.881-0.84
	c-1.247-0.672-4.682,1.652-5.503,0.028c-0.578-0.308-1.003,0.084-1.489-0.42c-0.244-0.252,0.669-3.052-1.824-4.2
	c0.577-0.448,1.186-0.756,1.733-1.176c0.152-0.308-0.031-0.784-0.031-1.093c0-0.476,0.304-1.399,0.213-1.735
	c-0.091-0.336-0.456-0.616-0.578-1.008c-0.151-0.393,0.031-0.896-0.182-1.315c-0.152-0.113-0.607-0.393-0.791-0.393
	c-0.638-0.532-1.337-0.868-1.854-1.513c-0.121-0.14-0.212-0.392-0.365-0.503c-0.456-0.337-1.945-0.784-1.885-1.484
	c0.031-0.225,0.334-0.252,0.426-0.477c0.091-0.279,0.03-0.644,0.243-0.896c0.699-0.952,2.249-0.532,2.006-2.297
	c-0.121-0.783-0.669-1.455-0.82-2.295c-0.274-0.196-0.305-0.532-0.548-0.729c-1.52-0.14-1.307-1.708-1.854-2.071
	c-1.611-1.093-2.857-0.421-1.064-2.577c0.244-0.7-1.55-1.819-1.915-2.212c-0.638-0.616-0.334-1.903-0.577-2.575
	c-0.122-0.336-1.186-0.925-1.521-1.4c-0.091-0.141-0.365-0.868-0.517-0.951l0.031-0.226c0.334-0.251,0.151-0.755,0.061-1.091
	c-0.213-0.196-0.669-0.14-0.821-0.28c-1.459-1.316-3.223-1.903-5.138-2.66c-0.517-0.195-0.364-0.616-0.79-0.813
	c-0.365-0.168-2.949-1.315-3.131-1.259c-0.304-0.085-0.516-1.233-0.729-1.597c-0.182-0.336-0.912-0.952-0.912-0.98
	c0.061-1.063-0.608-1.203-1.429-1.764c0.061-0.14-0.091-0.476-0.091-0.644c0-0.14,0.547-1.987,0.639-2.24
	c0.151-0.392,0.669-0.756,0.577-1.204c-0.121-0.699-0.212-1.792-0.456-2.407c-0.821-2.185-1.794-1.905-1.277-4.761
	c0.122-0.588-0.091-0.924,0.366-1.456c-0.061-0.028,0.212-0.309,0.243-0.364c0.273-0.252,1.034-0.672,1.186-0.867
	c0.456-0.616,0.729-2.016,1.308-2.465c0.425-0.336,1.642-0.979,1.854-1.259c0.182-0.226,0.456-0.925,0.303-1.205
	c-0.425-0.251-0.851-0.14-1.276-0.195c-0.152-0.028-0.699-0.42-1.125-0.505c-0.121-0.14-0.334-0.308-0.334-0.504l-0.182-0.168
	c-0.487-0.056-1.034-0.363-1.459-0.504c-0.547-0.224-1.307-0.252-1.824-0.56c-0.973-0.56-2.067-2.101-3.009-2.323
	c-1.276-0.281-2.098,0.11-3.314,0.167c-0.79,0.056-0.79-0.42-1.428-0.616c-0.852-0.251-0.212,0.449-2.159-0.168
	c-0.243-0.195,0.121-0.867,0.152-1.119c-0.305-0.084-0.668,0.084-1.034,0c-1.611-0.393-1.003-1.849-1.428-2.8
	c-0.183-0.226-0.852-0.169-1.155-0.197c-0.091-0.028-0.121-0.167-0.091-0.224l0.152-0.112c0.273-0.42-0.699-1.483-0.669-1.623
	c0.06-0.336,2.037-0.644,2.31-0.672c0.091-0.253-0.183-0.477-0.212-0.729c-0.061-0.56,0.304-1.288,0.486-1.792l-0.061-0.168
	c-0.547-0.309-0.729-0.756-1.215-1.12c0.03-0.253,0.365-0.42,0.426-0.672c0.942-2.604,2.401-0.532,3.678-2.94
	c0.122-0.224,0.486-0.813,0.608-1.203l0.243-0.057c0.243,0.057,0.577,0.252,0.821,0.168c0.182-0.252,0.577-0.336,0.881-0.42
	l0.456,0.112c2.371-0.504,1.824-1.372,3.191-2.352c0.365-0.252,1.429-0.364,1.915-0.533c0.517,0.225,1.247,1.036,2.22,1.4
	c0.699,0.28,3.1,0.784,3.496,1.008c0.517,0.28,0.607,0.952,1.064,1.204c1.368,0.729,0.578-0.504,1.884-0.252
	c1.338,0.28,2.433,1.373,3.679,1.904c0.213,0.084,0.73-0.028,0.973-0.084c0.396-0.084,2.523-0.476,2.736-0.393
	c0.244,0.084,0.607,0.309,0.852,0.364c0.304,0.056,0.547-0.588,0.759-0.56c0.913,0.141,0.943,0.504,2.159,0.392
	c0.06,0,0.638-3.416,1.216-3.584c0.334-0.084,1.246,0.813,1.52,0.869c0.456,0.111-0.031-0.701-0.06-0.757
	c-0.122-0.28-0.76-2.38-0.73-2.577c0.03-0.111,0.608,0.17,0.881,0.085c0.669-0.224,1.581-0.392,2.067-0.925
	c0.061-0.055,1.094-1.539,1.125-1.596c0.061-0.252-0.273-0.84-0.122-1.035c0.152-0.168,0.729-0.393,1.003-0.672
	c0.396-0.393,0.457-1.064,1.003-1.344c2.159-0.197,2.918-1.877,4.864-2.101c0.122,0,0.548-0.085,0.639-0.056l0.395,0.643
	c0.122,0.17,1.429,0.953,1.642,0.897c0.182-0.028,0.273-0.337,0.456-0.392c0.396,0.055,1.49-0.617,1.612-0.953
	c0.03-0.055-0.244-0.393-0.122-0.616c0.092-0.167,1.459-1.176,1.672-1.288c0.487,0,1.003-0.111,1.459,0.057
	c0.273,0.111,0.304,0.531,0.608,0.588c0.334,0.027,0.942-0.111,1.186-0.057c0.273,0.057,0.395-0.503,0.729-0.531L249.675,227.677z"
	/>
<g id="h">
	<g>
		<path id="star" fill="#FFFFFF" d="M353.468,68.661l16.929,52.1l-44.319-32.2h54.781l-44.318,32.2L353.468,68.661z"/>
	</g>
	<g>
		<path id="star_1_" fill="#FFFFFF" d="M419.387,80.285l16.928,52.1l-44.318-32.199h54.78l-44.318,32.199L419.387,80.285z"/>
	</g>
	<g>
		<path id="star_2_" fill="#FFFFFF" d="M482.286,103.178l16.928,52.1l-44.318-32.2h54.78l-44.318,32.2L482.286,103.178z"/>
	</g>
</g>
<g>
	<g id="h_1_">
		<g>
			<path id="star_3_" fill="#FFFFFF" d="M286.532,68.661l-16.928,52.1l44.319-32.2h-54.781l44.318,32.2L286.532,68.661z"/>
		</g>
		<g>
			<path id="star_4_" fill="#FFFFFF" d="M220.614,80.285l-16.928,52.1l44.318-32.199h-54.78l44.318,32.199L220.614,80.285z"/>
		</g>
		<g transform="scale(-1,1)">
			<path id="star_5_" fill="#FFFFFF" d="M157.714,103.178l-16.928,52.1l44.318-32.2h-54.781l44.318,32.2L157.714,103.178z"/>
		</g>
	</g>
</g>
</svg>
